<?xml version="1.0" encoding="UTF-8" standalone="no"?><svg xmlns="http://www.w3.org/2000/svg" xmlns:xlink="http://www.w3.org/1999/xlink" contentScriptType="application/ecmascript" contentStyleType="text/css" height="1095px" preserveAspectRatio="none" style="width:1829px;height:1095px;background:#FFFFFF;" version="1.1" viewBox="0 0 1829 1095" width="1829px" zoomAndPan="magnify"><defs><filter height="300%" id="fo50jkqv7rq49" width="300%" x="-1" y="-1"><feGaussianBlur result="blurOut" stdDeviation="2.0"/><feColorMatrix in="blurOut" result="blurOut2" type="matrix" values="0 0 0 0 0 0 0 0 0 0 0 0 0 0 0 0 0 0 .4 0"/><feOffset dx="4.0" dy="4.0" in="blurOut2" result="blurOut3"/><feBlend in="SourceGraphic" in2="blurOut3" mode="normal"/></filter></defs><g><line style="stroke:#A80036;stroke-width:1.0;stroke-dasharray:5.0,5.0;" x1="30" x2="30" y1="41.6094" y2="1051.1016"/><line style="stroke:#A80036;stroke-width:1.0;stroke-dasharray:5.0,5.0;" x1="160.5" x2="160.5" y1="41.6094" y2="1051.1016"/><line style="stroke:#A80036;stroke-width:1.0;stroke-dasharray:5.0,5.0;" x1="433" x2="433" y1="41.6094" y2="1051.1016"/><line style="stroke:#A80036;stroke-width:1.0;stroke-dasharray:5.0,5.0;" x1="705" x2="705" y1="41.6094" y2="1051.1016"/><line style="stroke:#A80036;stroke-width:1.0;stroke-dasharray:5.0,5.0;" x1="1146" x2="1146" y1="41.6094" y2="1051.1016"/><line style="stroke:#A80036;stroke-width:1.0;stroke-dasharray:5.0,5.0;" x1="1442" x2="1442" y1="41.6094" y2="1051.1016"/><line style="stroke:#A80036;stroke-width:1.0;stroke-dasharray:5.0,5.0;" x1="1578" x2="1578" y1="41.6094" y2="1051.1016"/><line style="stroke:#A80036;stroke-width:1.0;stroke-dasharray:5.0,5.0;" x1="1729" x2="1729" y1="41.6094" y2="1051.1016"/><rect fill="#FEFECE" filter="url(#fo50jkqv7rq49)" height="31.6094" style="stroke:#A80036;stroke-width:1.5;" width="46" x="5" y="5"/><text fill="#000000" font-family="sans-serif" font-size="14" lengthAdjust="spacing" textLength="32" x="12" y="26.5332">MOP</text><rect fill="#FEFECE" filter="url(#fo50jkqv7rq49)" height="31.6094" style="stroke:#A80036;stroke-width:1.5;" width="46" x="5" y="1050.1016"/><text fill="#000000" font-family="sans-serif" font-size="14" lengthAdjust="spacing" textLength="32" x="12" y="1071.6348">MOP</text><rect fill="#FEFECE" filter="url(#fo50jkqv7rq49)" height="31.6094" style="stroke:#A80036;stroke-width:1.5;" width="33" x="142.5" y="5"/><text fill="#000000" font-family="sans-serif" font-size="14" lengthAdjust="spacing" textLength="19" x="149.5" y="26.5332">BR</text><rect fill="#FEFECE" filter="url(#fo50jkqv7rq49)" height="31.6094" style="stroke:#A80036;stroke-width:1.5;" width="33" x="142.5" y="1050.1016"/><text fill="#000000" font-family="sans-serif" font-size="14" lengthAdjust="spacing" textLength="19" x="149.5" y="1071.6348">BR</text><rect fill="#FEFECE" filter="url(#fo50jkqv7rq49)" height="31.6094" style="stroke:#A80036;stroke-width:1.5;" width="130" x="366" y="5"/><text fill="#000000" font-family="sans-serif" font-size="14" lengthAdjust="spacing" textLength="116" x="373" y="26.5332">PortalLoginServlet</text><rect fill="#FEFECE" filter="url(#fo50jkqv7rq49)" height="31.6094" style="stroke:#A80036;stroke-width:1.5;" width="130" x="366" y="1050.1016"/><text fill="#000000" font-family="sans-serif" font-size="14" lengthAdjust="spacing" textLength="116" x="373" y="1071.6348">PortalLoginServlet</text><rect fill="#FEFECE" filter="url(#fo50jkqv7rq49)" height="31.6094" style="stroke:#A80036;stroke-width:1.5;" width="154" x="626" y="5"/><text fill="#000000" font-family="sans-serif" font-size="14" lengthAdjust="spacing" textLength="140" x="633" y="26.5332">SingpassOIDCService</text><rect fill="#FEFECE" filter="url(#fo50jkqv7rq49)" height="31.6094" style="stroke:#A80036;stroke-width:1.5;" width="154" x="626" y="1050.1016"/><text fill="#000000" font-family="sans-serif" font-size="14" lengthAdjust="spacing" textLength="140" x="633" y="1071.6348">SingpassOIDCService</text><rect fill="#FEFECE" filter="url(#fo50jkqv7rq49)" height="31.6094" style="stroke:#A80036;stroke-width:1.5;" width="52" x="1118" y="5"/><text fill="#000000" font-family="sans-serif" font-size="14" lengthAdjust="spacing" textLength="38" x="1125" y="26.5332">SPOP</text><rect fill="#FEFECE" filter="url(#fo50jkqv7rq49)" height="31.6094" style="stroke:#A80036;stroke-width:1.5;" width="52" x="1118" y="1050.1016"/><text fill="#000000" font-family="sans-serif" font-size="14" lengthAdjust="spacing" textLength="38" x="1125" y="1071.6348">SPOP</text><rect fill="#FEFECE" filter="url(#fo50jkqv7rq49)" height="31.6094" style="stroke:#A80036;stroke-width:1.5;" width="146" x="1367" y="5"/><text fill="#000000" font-family="sans-serif" font-size="14" lengthAdjust="spacing" textLength="132" x="1374" y="26.5332">SingPassAuthServlet</text><rect fill="#FEFECE" filter="url(#fo50jkqv7rq49)" height="31.6094" style="stroke:#A80036;stroke-width:1.5;" width="146" x="1367" y="1050.1016"/><text fill="#000000" font-family="sans-serif" font-size="14" lengthAdjust="spacing" textLength="132" x="1374" y="1071.6348">SingPassAuthServlet</text><rect fill="#FEFECE" filter="url(#fo50jkqv7rq49)" height="31.6094" style="stroke:#A80036;stroke-width:1.5;" width="99" x="1527" y="5"/><text fill="#000000" font-family="sans-serif" font-size="14" lengthAdjust="spacing" textLength="85" x="1534" y="26.5332">JWKSService</text><rect fill="#FEFECE" filter="url(#fo50jkqv7rq49)" height="31.6094" style="stroke:#A80036;stroke-width:1.5;" width="99" x="1527" y="1050.1016"/><text fill="#000000" font-family="sans-serif" font-size="14" lengthAdjust="spacing" textLength="85" x="1534" y="1071.6348">JWKSService</text><rect fill="#FEFECE" filter="url(#fo50jkqv7rq49)" height="31.6094" style="stroke:#A80036;stroke-width:1.5;" width="175" x="1640" y="5"/><text fill="#000000" font-family="sans-serif" font-size="14" lengthAdjust="spacing" textLength="161" x="1647" y="26.5332">CommonGuavaCacheUtil</text><rect fill="#FEFECE" filter="url(#fo50jkqv7rq49)" height="31.6094" style="stroke:#A80036;stroke-width:1.5;" width="175" x="1640" y="1050.1016"/><text fill="#000000" font-family="sans-serif" font-size="14" lengthAdjust="spacing" textLength="161" x="1647" y="1071.6348">CommonGuavaCacheUtil</text><polygon fill="#A80036" points="149,69.9609,159,73.9609,149,77.9609,153,73.9609" style="stroke:#A80036;stroke-width:1.0;"/><line style="stroke:#A80036;stroke-width:1.0;" x1="30" x2="155" y1="73.9609" y2="73.9609"/><text fill="#000000" font-family="sans-serif" font-size="13" lengthAdjust="spacing" textLength="98" x="37" y="69.1045">click login button</text><polygon fill="#A80036" points="421,100.3125,431,104.3125,421,108.3125,425,104.3125" style="stroke:#A80036;stroke-width:1.0;"/><line style="stroke:#A80036;stroke-width:1.0;" x1="161" x2="427" y1="104.3125" y2="104.3125"/><text fill="#000000" font-family="sans-serif" font-size="13" lengthAdjust="spacing" textLength="248" x="168" y="99.4561">construct singpass authentication endpoint</text><polygon fill="#A80036" points="693,130.6641,703,134.6641,693,138.6641,697,134.6641" style="stroke:#A80036;stroke-width:1.0;"/><line style="stroke:#A80036;stroke-width:1.0;" x1="433" x2="699" y1="134.6641" y2="134.6641"/><text fill="#000000" font-family="sans-serif" font-size="13" lengthAdjust="spacing" textLength="248" x="440" y="129.8076">construct singpass authentication endpoint</text><polygon fill="#A80036" points="444,161.0156,434,165.0156,444,169.0156,440,165.0156" style="stroke:#A80036;stroke-width:1.0;"/><line style="stroke:#A80036;stroke-width:1.0;" x1="438" x2="704" y1="165.0156" y2="165.0156"/><text fill="#000000" font-family="sans-serif" font-size="13" lengthAdjust="spacing" textLength="138" x="450" y="160.1592">return singpass login url</text><polygon fill="#A80036" points="172,191.3672,162,195.3672,172,199.3672,168,195.3672" style="stroke:#A80036;stroke-width:1.0;"/><line style="stroke:#A80036;stroke-width:1.0;" x1="166" x2="432" y1="195.3672" y2="195.3672"/><text fill="#000000" font-family="sans-serif" font-size="13" lengthAdjust="spacing" textLength="243" x="178" y="190.5107">instruct browser to redirect to singpass op</text><polygon fill="#A80036" points="1134,221.7188,1144,225.7188,1134,229.7188,1138,225.7188" style="stroke:#A80036;stroke-width:1.0;"/><line style="stroke:#A80036;stroke-width:1.0;" x1="161" x2="1140" y1="225.7188" y2="225.7188"/><text fill="#000000" font-family="sans-serif" font-size="13" lengthAdjust="spacing" textLength="132" x="168" y="220.8623">redirect to singpass op</text><line style="stroke:#A80036;stroke-width:1.0;" x1="1146" x2="1188" y1="256.0703" y2="256.0703"/><line style="stroke:#A80036;stroke-width:1.0;" x1="1188" x2="1188" y1="256.0703" y2="269.0703"/><line style="stroke:#A80036;stroke-width:1.0;" x1="1147" x2="1188" y1="269.0703" y2="269.0703"/><polygon fill="#A80036" points="1157,265.0703,1147,269.0703,1157,273.0703,1153,269.0703" style="stroke:#A80036;stroke-width:1.0;"/><text fill="#000000" font-family="sans-serif" font-size="13" lengthAdjust="spacing" textLength="27" x="1153" y="251.2139">login</text><polygon fill="#A80036" points="1430,295.4219,1440,299.4219,1430,303.4219,1434,299.4219" style="stroke:#A80036;stroke-width:1.0;"/><line style="stroke:#A80036;stroke-width:1.0;" x1="1146" x2="1436" y1="299.4219" y2="299.4219"/><text fill="#000000" font-family="sans-serif" font-size="13" lengthAdjust="spacing" textLength="122" x="1153" y="294.5654">response(state,code)</text><polygon fill="#A80036" points="716,325.7734,706,329.7734,716,333.7734,712,329.7734" style="stroke:#A80036;stroke-width:1.0;"/><line style="stroke:#A80036;stroke-width:1.0;" x1="710" x2="1441" y1="329.7734" y2="329.7734"/><text fill="#000000" font-family="sans-serif" font-size="13" lengthAdjust="spacing" textLength="65" x="722" y="324.917">getIdToken</text><line style="stroke:#A80036;stroke-width:1.0;" x1="705" x2="747" y1="360.125" y2="360.125"/><line style="stroke:#A80036;stroke-width:1.0;" x1="747" x2="747" y1="360.125" y2="373.125"/><line style="stroke:#A80036;stroke-width:1.0;" x1="706" x2="747" y1="373.125" y2="373.125"/><polygon fill="#A80036" points="716,369.125,706,373.125,716,377.125,712,373.125" style="stroke:#A80036;stroke-width:1.0;"/><text fill="#000000" font-family="sans-serif" font-size="13" lengthAdjust="spacing" textLength="227" x="712" y="355.2686">validateAuthenticationEndpointRequest</text><line style="stroke:#A80036;stroke-width:1.0;" x1="705" x2="747" y1="403.4766" y2="403.4766"/><line style="stroke:#A80036;stroke-width:1.0;" x1="747" x2="747" y1="403.4766" y2="416.4766"/><line style="stroke:#A80036;stroke-width:1.0;" x1="706" x2="747" y1="416.4766" y2="416.4766"/><polygon fill="#A80036" points="716,412.4766,706,416.4766,716,420.4766,712,416.4766" style="stroke:#A80036;stroke-width:1.0;"/><text fill="#000000" font-family="sans-serif" font-size="13" lengthAdjust="spacing" textLength="138" x="712" y="398.6201">generateClientAssertion</text><polygon fill="#A80036" points="1566.5,426.4766,1576.5,430.4766,1566.5,434.4766,1570.5,430.4766" style="stroke:#A80036;stroke-width:1.0;"/><line style="stroke:#A80036;stroke-width:1.0;" x1="705" x2="1572.5" y1="430.4766" y2="430.4766"/><line style="stroke:#A80036;stroke-width:1.0;" x1="705" x2="747" y1="460.8281" y2="460.8281"/><line style="stroke:#A80036;stroke-width:1.0;" x1="747" x2="747" y1="460.8281" y2="473.8281"/><line style="stroke:#A80036;stroke-width:1.0;" x1="706" x2="747" y1="473.8281" y2="473.8281"/><polygon fill="#A80036" points="716,469.8281,706,473.8281,716,477.8281,712,473.8281" style="stroke:#A80036;stroke-width:1.0;"/><text fill="#000000" font-family="sans-serif" font-size="13" lengthAdjust="spacing" textLength="265" x="712" y="455.9717">get token endpoint json(clientAssertion, code)</text><polygon fill="#A80036" points="1134,500.1797,1144,504.1797,1134,508.1797,1138,504.1797" style="stroke:#A80036;stroke-width:1.0;"/><line style="stroke:#A80036;stroke-width:1.0;" x1="705" x2="1140" y1="504.1797" y2="504.1797"/><text fill="#000000" font-family="sans-serif" font-size="13" lengthAdjust="spacing" textLength="265" x="712" y="499.3232">get token endpoint json(clientAssertion, code)</text><line style="stroke:#A80036;stroke-width:1.0;" x1="1146" x2="1188" y1="534.5313" y2="534.5313"/><line style="stroke:#A80036;stroke-width:1.0;" x1="1188" x2="1188" y1="534.5313" y2="547.5313"/><line style="stroke:#A80036;stroke-width:1.0;" x1="1147" x2="1188" y1="547.5313" y2="547.5313"/><polygon fill="#A80036" points="1157,543.5313,1147,547.5313,1157,551.5313,1153,547.5313" style="stroke:#A80036;stroke-width:1.0;"/><text fill="#000000" font-family="sans-serif" font-size="13" lengthAdjust="spacing" textLength="282" x="1153" y="529.6748">construct jwe (encrypt using client-jwks-enc-pub)</text><polygon fill="#A80036" points="716,573.8828,706,577.8828,716,581.8828,712,577.8828" style="stroke:#A80036;stroke-width:1.0;"/><line style="stroke:#A80036;stroke-width:1.0;" x1="710" x2="1145" y1="577.8828" y2="577.8828"/><text fill="#000000" font-family="sans-serif" font-size="13" lengthAdjust="spacing" textLength="177" x="722" y="573.0264">return with token endpoint json</text><line style="stroke:#A80036;stroke-width:1.0;" x1="705" x2="747" y1="608.2344" y2="608.2344"/><line style="stroke:#A80036;stroke-width:1.0;" x1="747" x2="747" y1="608.2344" y2="621.2344"/><line style="stroke:#A80036;stroke-width:1.0;" x1="706" x2="747" y1="621.2344" y2="621.2344"/><polygon fill="#A80036" points="716,617.2344,706,621.2344,716,625.2344,712,621.2344" style="stroke:#A80036;stroke-width:1.0;"/><text fill="#000000" font-family="sans-serif" font-size="13" lengthAdjust="spacing" textLength="221" x="712" y="603.3779">validate response from token endpoint</text><line style="stroke:#A80036;stroke-width:1.0;" x1="705" x2="747" y1="651.5859" y2="651.5859"/><line style="stroke:#A80036;stroke-width:1.0;" x1="747" x2="747" y1="651.5859" y2="664.5859"/><line style="stroke:#A80036;stroke-width:1.0;" x1="706" x2="747" y1="664.5859" y2="664.5859"/><polygon fill="#A80036" points="716,660.5859,706,664.5859,716,668.5859,712,664.5859" style="stroke:#A80036;stroke-width:1.0;"/><text fill="#000000" font-family="sans-serif" font-size="13" lengthAdjust="spacing" textLength="427" x="712" y="646.7295">decrypt jwe using client jwk endpoint "enc" private key(client-jwks-enc-pri)</text><line style="stroke:#A80036;stroke-width:1.0;" x1="705" x2="747" y1="694.9375" y2="694.9375"/><line style="stroke:#A80036;stroke-width:1.0;" x1="747" x2="747" y1="694.9375" y2="707.9375"/><line style="stroke:#A80036;stroke-width:1.0;" x1="706" x2="747" y1="707.9375" y2="707.9375"/><polygon fill="#A80036" points="716,703.9375,706,707.9375,716,711.9375,712,707.9375" style="stroke:#A80036;stroke-width:1.0;"/><text fill="#000000" font-family="sans-serif" font-size="13" lengthAdjust="spacing" textLength="151" x="712" y="690.0811">extract JWS from payload</text><line style="stroke:#A80036;stroke-width:1.0;" x1="705" x2="747" y1="738.2891" y2="738.2891"/><line style="stroke:#A80036;stroke-width:1.0;" x1="747" x2="747" y1="738.2891" y2="751.2891"/><line style="stroke:#A80036;stroke-width:1.0;" x1="706" x2="747" y1="751.2891" y2="751.2891"/><polygon fill="#A80036" points="716,747.2891,706,751.2891,716,755.2891,712,751.2891" style="stroke:#A80036;stroke-width:1.0;"/><text fill="#000000" font-family="sans-serif" font-size="13" lengthAdjust="spacing" textLength="414" x="712" y="733.4326">verify token signature(using SingPass JWKS Endpoint "sig" public key)</text><polygon fill="#A80036" points="1717.5,777.6406,1727.5,781.6406,1717.5,785.6406,1721.5,781.6406" style="stroke:#A80036;stroke-width:1.0;"/><line style="stroke:#A80036;stroke-width:1.0;" x1="705" x2="1723.5" y1="781.6406" y2="781.6406"/><text fill="#000000" font-family="sans-serif" font-size="13" lengthAdjust="spacing" textLength="261" x="712" y="776.7842">request for SingPass JWKS(sp-jwks-sig-pub)</text><polygon fill="#A80036" points="716,807.9922,706,811.9922,716,815.9922,712,811.9922" style="stroke:#A80036;stroke-width:1.0;"/><line style="stroke:#A80036;stroke-width:1.0;" x1="710" x2="1728.5" y1="811.9922" y2="811.9922"/><text fill="#000000" font-family="sans-serif" font-size="13" lengthAdjust="spacing" textLength="90" x="722" y="807.1357">sp-jwks-sig-pub</text><line style="stroke:#A80036;stroke-width:1.0;" x1="705" x2="747" y1="842.3438" y2="842.3438"/><line style="stroke:#A80036;stroke-width:1.0;" x1="747" x2="747" y1="842.3438" y2="855.3438"/><line style="stroke:#A80036;stroke-width:1.0;" x1="706" x2="747" y1="855.3438" y2="855.3438"/><polygon fill="#A80036" points="716,851.3438,706,855.3438,716,859.3438,712,855.3438" style="stroke:#A80036;stroke-width:1.0;"/><text fill="#000000" font-family="sans-serif" font-size="13" lengthAdjust="spacing" textLength="271" x="712" y="837.4873">validate JWS signature (using sp-jwks-sig-pub)</text><line style="stroke:#A80036;stroke-width:1.0;" x1="705" x2="747" y1="885.6953" y2="885.6953"/><line style="stroke:#A80036;stroke-width:1.0;" x1="747" x2="747" y1="885.6953" y2="898.6953"/><line style="stroke:#A80036;stroke-width:1.0;" x1="706" x2="747" y1="898.6953" y2="898.6953"/><polygon fill="#A80036" points="716,894.6953,706,898.6953,716,902.6953,712,898.6953" style="stroke:#A80036;stroke-width:1.0;"/><text fill="#000000" font-family="sans-serif" font-size="13" lengthAdjust="spacing" textLength="132" x="712" y="880.8389">validate JWS structure</text><line style="stroke:#A80036;stroke-width:1.0;" x1="705" x2="747" y1="929.0469" y2="929.0469"/><line style="stroke:#A80036;stroke-width:1.0;" x1="747" x2="747" y1="929.0469" y2="942.0469"/><line style="stroke:#A80036;stroke-width:1.0;" x1="706" x2="747" y1="942.0469" y2="942.0469"/><polygon fill="#A80036" points="716,938.0469,706,942.0469,716,946.0469,712,942.0469" style="stroke:#A80036;stroke-width:1.0;"/><text fill="#000000" font-family="sans-serif" font-size="13" lengthAdjust="spacing" textLength="204" x="712" y="924.1904">extract "sub"(subject) from payload</text><polygon fill="#A80036" points="1430,968.3984,1440,972.3984,1430,976.3984,1434,972.3984" style="stroke:#A80036;stroke-width:1.0;"/><line style="stroke:#A80036;stroke-width:1.0;" x1="705" x2="1436" y1="972.3984" y2="972.3984"/><text fill="#000000" font-family="sans-serif" font-size="13" lengthAdjust="spacing" textLength="27" x="712" y="967.542">login</text><polygon fill="#A80036" points="172,998.75,162,1002.75,172,1006.75,168,1002.75" style="stroke:#A80036;stroke-width:1.0;"/><line style="stroke:#A80036;stroke-width:1.0;" x1="166" x2="1441" y1="1002.75" y2="1002.75"/><text fill="#000000" font-family="sans-serif" font-size="13" lengthAdjust="spacing" textLength="290" x="178" y="997.8936">instruct browser to show landing page with login id</text><polygon fill="#A80036" points="41,1029.1016,31,1033.1016,41,1037.1016,37,1033.1016" style="stroke:#A80036;stroke-width:1.0;"/><line style="stroke:#A80036;stroke-width:1.0;" x1="35" x2="160" y1="1033.1016" y2="1033.1016"/><text fill="#000000" font-family="sans-serif" font-size="13" lengthAdjust="spacing" textLength="107" x="47" y="1028.2451">show landing page</text><!--MD5=[4ac16394fc19928ebf87fab2d4dbb8c2]
@startuml
MOP -> BR:click login button
BR -> PortalLoginServlet: construct singpass authentication endpoint
PortalLoginServlet -> SingpassOIDCService: construct singpass authentication endpoint
SingpassOIDCService -> PortalLoginServlet: return singpass login url
PortalLoginServlet -> BR: instruct browser to redirect to singpass op
BR -> SPOP: redirect to singpass op
SPOP -> SPOP: login
SPOP -> SingPassAuthServlet: response(state,code)
SingPassAuthServlet -> SingpassOIDCService: getIdToken
SingpassOIDCService -> SingpassOIDCService: validateAuthenticationEndpointRequest
SingpassOIDCService -> SingpassOIDCService: generateClientAssertion
SingpassOIDCService -> JWKSService: 
SingpassOIDCService -> SingpassOIDCService: get token endpoint json(clientAssertion, code)
SingpassOIDCService -> SPOP: get token endpoint json(clientAssertion, code)
SPOP -> SPOP: construct jwe (encrypt using client-jwks-enc-pub)
SPOP -> SingpassOIDCService: return with token endpoint json
SingpassOIDCService -> SingpassOIDCService: validate response from token endpoint
SingpassOIDCService -> SingpassOIDCService: decrypt jwe using client jwk endpoint "enc" private key(client-jwks-enc-pri)
SingpassOIDCService -> SingpassOIDCService: extract JWS from payload
SingpassOIDCService -> SingpassOIDCService: verify token signature(using SingPass JWKS Endpoint "sig" public key)
SingpassOIDCService -> CommonGuavaCacheUtil: request for SingPass JWKS(sp-jwks-sig-pub)
CommonGuavaCacheUtil -> SingpassOIDCService: sp-jwks-sig-pub
SingpassOIDCService -> SingpassOIDCService: validate JWS signature (using sp-jwks-sig-pub)
SingpassOIDCService -> SingpassOIDCService: validate JWS structure
SingpassOIDCService -> SingpassOIDCService: extract "sub"(subject) from payload
SingpassOIDCService -> SingPassAuthServlet: login
SingPassAuthServlet -> BR: instruct browser to show landing page with login id
BR -> MOP: show landing page
@enduml

PlantUML version 1.2021.10(Mon Aug 30 21:43:48 SGT 2021)
(GPL source distribution)
Java Runtime: Java(TM) SE Runtime Environment
JVM: Java HotSpot(TM) 64-Bit Server VM
Default Encoding: Cp1252
Language: en
Country: US
--></g></svg>