<?xml version="1.0" encoding="UTF-8" standalone="no"?><svg xmlns="http://www.w3.org/2000/svg" xmlns:xlink="http://www.w3.org/1999/xlink" contentScriptType="application/ecmascript" contentStyleType="text/css" height="362px" preserveAspectRatio="none" style="width:862px;height:362px;background:#FFFFFF;" version="1.1" viewBox="0 0 862 362" width="862px" zoomAndPan="magnify"><defs><filter height="300%" id="fv9loi1pphtpu" width="300%" x="-1" y="-1"><feGaussianBlur result="blurOut" stdDeviation="2.0"/><feColorMatrix in="blurOut" result="blurOut2" type="matrix" values="0 0 0 0 0 0 0 0 0 0 0 0 0 0 0 0 0 0 .4 0"/><feOffset dx="4.0" dy="4.0" in="blurOut2" result="blurOut3"/><feBlend in="SourceGraphic" in2="blurOut3" mode="normal"/></filter></defs><g><line style="stroke:#A80036;stroke-width:1.0;stroke-dasharray:5.0,5.0;" x1="30" x2="30" y1="41.6094" y2="317.4219"/><line style="stroke:#A80036;stroke-width:1.0;stroke-dasharray:5.0,5.0;" x1="151.5" x2="151.5" y1="41.6094" y2="317.4219"/><line style="stroke:#A80036;stroke-width:1.0;stroke-dasharray:5.0,5.0;" x1="424" x2="424" y1="41.6094" y2="317.4219"/><line style="stroke:#A80036;stroke-width:1.0;stroke-dasharray:5.0,5.0;" x1="696" x2="696" y1="41.6094" y2="317.4219"/><line style="stroke:#A80036;stroke-width:1.0;stroke-dasharray:5.0,5.0;" x1="813" x2="813" y1="41.6094" y2="317.4219"/><rect fill="#FEFECE" filter="url(#fv9loi1pphtpu)" height="31.6094" style="stroke:#A80036;stroke-width:1.5;" width="46" x="5" y="5"/><text fill="#000000" font-family="sans-serif" font-size="14" lengthAdjust="spacing" textLength="32" x="12" y="26.5332">MOP</text><rect fill="#FEFECE" filter="url(#fv9loi1pphtpu)" height="31.6094" style="stroke:#A80036;stroke-width:1.5;" width="46" x="5" y="316.4219"/><text fill="#000000" font-family="sans-serif" font-size="14" lengthAdjust="spacing" textLength="32" x="12" y="337.9551">MOP</text><rect fill="#FEFECE" filter="url(#fv9loi1pphtpu)" height="31.6094" style="stroke:#A80036;stroke-width:1.5;" width="33" x="133.5" y="5"/><text fill="#000000" font-family="sans-serif" font-size="14" lengthAdjust="spacing" textLength="19" x="140.5" y="26.5332">BR</text><rect fill="#FEFECE" filter="url(#fv9loi1pphtpu)" height="31.6094" style="stroke:#A80036;stroke-width:1.5;" width="33" x="133.5" y="316.4219"/><text fill="#000000" font-family="sans-serif" font-size="14" lengthAdjust="spacing" textLength="19" x="140.5" y="337.9551">BR</text><rect fill="#FEFECE" filter="url(#fv9loi1pphtpu)" height="31.6094" style="stroke:#A80036;stroke-width:1.5;" width="130" x="357" y="5"/><text fill="#000000" font-family="sans-serif" font-size="14" lengthAdjust="spacing" textLength="116" x="364" y="26.5332">PortalLoginServlet</text><rect fill="#FEFECE" filter="url(#fv9loi1pphtpu)" height="31.6094" style="stroke:#A80036;stroke-width:1.5;" width="130" x="357" y="316.4219"/><text fill="#000000" font-family="sans-serif" font-size="14" lengthAdjust="spacing" textLength="116" x="364" y="337.9551">PortalLoginServlet</text><rect fill="#FEFECE" filter="url(#fv9loi1pphtpu)" height="31.6094" style="stroke:#A80036;stroke-width:1.5;" width="154" x="617" y="5"/><text fill="#000000" font-family="sans-serif" font-size="14" lengthAdjust="spacing" textLength="140" x="624" y="26.5332">SingpassOIDCService</text><rect fill="#FEFECE" filter="url(#fv9loi1pphtpu)" height="31.6094" style="stroke:#A80036;stroke-width:1.5;" width="154" x="617" y="316.4219"/><text fill="#000000" font-family="sans-serif" font-size="14" lengthAdjust="spacing" textLength="140" x="624" y="337.9551">SingpassOIDCService</text><rect fill="#FEFECE" filter="url(#fv9loi1pphtpu)" height="31.6094" style="stroke:#A80036;stroke-width:1.5;" width="52" x="785" y="5"/><text fill="#000000" font-family="sans-serif" font-size="14" lengthAdjust="spacing" textLength="38" x="792" y="26.5332">SPOP</text><rect fill="#FEFECE" filter="url(#fv9loi1pphtpu)" height="31.6094" style="stroke:#A80036;stroke-width:1.5;" width="52" x="785" y="316.4219"/><text fill="#000000" font-family="sans-serif" font-size="14" lengthAdjust="spacing" textLength="38" x="792" y="337.9551">SPOP</text><polygon fill="#A80036" points="140,69.9609,150,73.9609,140,77.9609,144,73.9609" style="stroke:#A80036;stroke-width:1.0;"/><line style="stroke:#A80036;stroke-width:1.0;" x1="30" x2="146" y1="73.9609" y2="73.9609"/><text fill="#000000" font-family="sans-serif" font-size="13" lengthAdjust="spacing" textLength="98" x="37" y="69.1045">click login button</text><polygon fill="#A80036" points="412,100.3125,422,104.3125,412,108.3125,416,104.3125" style="stroke:#A80036;stroke-width:1.0;"/><line style="stroke:#A80036;stroke-width:1.0;" x1="152" x2="418" y1="104.3125" y2="104.3125"/><text fill="#000000" font-family="sans-serif" font-size="13" lengthAdjust="spacing" textLength="248" x="159" y="99.4561">construct singpass authentication endpoint</text><polygon fill="#A80036" points="684,130.6641,694,134.6641,684,138.6641,688,134.6641" style="stroke:#A80036;stroke-width:1.0;"/><line style="stroke:#A80036;stroke-width:1.0;" x1="424" x2="690" y1="134.6641" y2="134.6641"/><text fill="#000000" font-family="sans-serif" font-size="13" lengthAdjust="spacing" textLength="248" x="431" y="129.8076">construct singpass authentication endpoint</text><polygon fill="#A80036" points="435,161.0156,425,165.0156,435,169.0156,431,165.0156" style="stroke:#A80036;stroke-width:1.0;"/><line style="stroke:#A80036;stroke-width:1.0;" x1="429" x2="695" y1="165.0156" y2="165.0156"/><text fill="#000000" font-family="sans-serif" font-size="13" lengthAdjust="spacing" textLength="138" x="441" y="160.1592">return singpass login url</text><polygon fill="#A80036" points="163,191.3672,153,195.3672,163,199.3672,159,195.3672" style="stroke:#A80036;stroke-width:1.0;"/><line style="stroke:#A80036;stroke-width:1.0;" x1="157" x2="423" y1="195.3672" y2="195.3672"/><text fill="#000000" font-family="sans-serif" font-size="13" lengthAdjust="spacing" textLength="243" x="169" y="190.5107">instruct browser to redirect to singpass op</text><polygon fill="#A80036" points="801,221.7188,811,225.7188,801,229.7188,805,225.7188" style="stroke:#A80036;stroke-width:1.0;"/><line style="stroke:#A80036;stroke-width:1.0;" x1="152" x2="807" y1="225.7188" y2="225.7188"/><text fill="#000000" font-family="sans-serif" font-size="13" lengthAdjust="spacing" textLength="132" x="159" y="220.8623">redirect to singpass op</text><line style="stroke:#A80036;stroke-width:1.0;" x1="813" x2="855" y1="256.0703" y2="256.0703"/><line style="stroke:#A80036;stroke-width:1.0;" x1="855" x2="855" y1="256.0703" y2="269.0703"/><line style="stroke:#A80036;stroke-width:1.0;" x1="814" x2="855" y1="269.0703" y2="269.0703"/><polygon fill="#A80036" points="824,265.0703,814,269.0703,824,273.0703,820,269.0703" style="stroke:#A80036;stroke-width:1.0;"/><text fill="#000000" font-family="sans-serif" font-size="13" lengthAdjust="spacing" textLength="27" x="820" y="251.2139">login</text><polygon fill="#A80036" points="163,295.4219,153,299.4219,163,303.4219,159,299.4219" style="stroke:#A80036;stroke-width:1.0;"/><line style="stroke:#A80036;stroke-width:1.0;" x1="157" x2="812" y1="299.4219" y2="299.4219"/><text fill="#000000" font-family="sans-serif" font-size="13" lengthAdjust="spacing" textLength="100" x="169" y="294.5654">response back to</text><!--MD5=[a6f68b0b04400ec41353cc81e27d4bfb]
@startuml
MOP -> BR:click login button
BR -> PortalLoginServlet: construct singpass authentication endpoint
PortalLoginServlet -> SingpassOIDCService: construct singpass authentication endpoint
SingpassOIDCService -> PortalLoginServlet: return singpass login url
PortalLoginServlet -> BR: instruct browser to redirect to singpass op
BR -> SPOP: redirect to singpass op
SPOP -> SPOP: login
SPOP -> BR: response back to
@enduml

PlantUML version 1.2021.10(Mon Aug 30 21:43:48 SGT 2021)
(GPL source distribution)
Java Runtime: Java(TM) SE Runtime Environment
JVM: Java HotSpot(TM) 64-Bit Server VM
Default Encoding: Cp1252
Language: en
Country: US
--></g></svg>