<?xml version="1.0" encoding="UTF-8" standalone="no"?><svg xmlns="http://www.w3.org/2000/svg" xmlns:xlink="http://www.w3.org/1999/xlink" contentScriptType="application/ecmascript" contentStyleType="text/css" height="69px" preserveAspectRatio="none" style="width:198px;height:69px;background:#FFFFFF;" version="1.1" viewBox="0 0 198 69" width="198px" zoomAndPan="magnify"><defs><filter height="300%" id="fgqqhdtvyf041" width="300%" x="-1" y="-1"><feGaussianBlur result="blurOut" stdDeviation="2.0"/><feColorMatrix in="blurOut" result="blurOut2" type="matrix" values="0 0 0 0 0 0 0 0 0 0 0 0 0 0 0 0 0 0 .4 0"/><feOffset dx="4.0" dy="4.0" in="blurOut2" result="blurOut3"/><feBlend in="SourceGraphic" in2="blurOut3" mode="normal"/></filter></defs><g><!--MD5=[a46ee5ce0ceb0380cf446a08a056dce4]
class A--><rect fill="#FEFECE" filter="url(#fgqqhdtvyf041)" height="48" id="A" style="stroke:#A80036;stroke-width:1.5;" width="40" x="7" y="7"/><ellipse cx="22" cy="23" fill="#ADD1B2" rx="11" ry="11" style="stroke:#A80036;stroke-width:1.0;"/><path d="M24.7656,18.875 Q24.9219,18.6563 25.1094,18.5469 Q25.2969,18.4375 25.5156,18.4375 Q25.8906,18.4375 26.125,18.7031 Q26.3594,18.9531 26.3594,19.5625 L26.3594,21.0156 Q26.3594,21.625 26.125,21.8906 Q25.8906,22.1563 25.5156,22.1563 Q25.1719,22.1563 24.9688,21.9531 Q24.7656,21.7656 24.6563,21.25 Q24.6094,20.8906 24.4219,20.7031 Q24.0938,20.3281 23.4844,20.1094 Q22.875,19.8906 22.25,19.8906 Q21.4844,19.8906 20.8438,20.2188 Q20.2188,20.5469 19.7188,21.2969 Q19.2344,22.0469 19.2344,23.0781 L19.2344,24.1719 Q19.2344,25.4063 20.125,26.2344 Q21.0156,27.0469 22.6094,27.0469 Q23.5469,27.0469 24.2031,26.7969 Q24.5938,26.6406 25.0156,26.2031 Q25.2813,25.9375 25.4219,25.8594 Q25.5781,25.7813 25.7813,25.7813 Q26.1094,25.7813 26.3594,26.0469 Q26.625,26.2969 26.625,26.6406 Q26.625,26.9844 26.2813,27.3906 Q25.7813,27.9688 24.9844,28.2969 Q23.9063,28.75 22.6094,28.75 Q21.0938,28.75 19.8906,28.125 Q18.9063,27.625 18.2188,26.5625 Q17.5313,25.4844 17.5313,24.2031 L17.5313,23.0469 Q17.5313,21.7188 18.1406,20.5781 Q18.7656,19.4219 19.8594,18.8125 Q20.9531,18.1875 22.1875,18.1875 Q22.9219,18.1875 23.5625,18.3594 Q24.2188,18.5156 24.7656,18.875 Z " fill="#000000"/><text fill="#000000" font-family="sans-serif" font-size="12" lengthAdjust="spacing" textLength="8" x="36" y="27.9102">A</text><line style="stroke:#A80036;stroke-width:1.5;" x1="8" x2="46" y1="39" y2="39"/><line style="stroke:#A80036;stroke-width:1.5;" x1="8" x2="46" y1="47" y2="47"/><!--MD5=[69c451c751c414e37549b782190fef46]
class B--><rect fill="#FEFECE" filter="url(#fgqqhdtvyf041)" height="48" id="B" style="stroke:#A80036;stroke-width:1.5;" width="40" x="144" y="7"/><ellipse cx="159" cy="23" fill="#ADD1B2" rx="11" ry="11" style="stroke:#A80036;stroke-width:1.0;"/><path d="M161.7656,18.875 Q161.9219,18.6563 162.1094,18.5469 Q162.2969,18.4375 162.5156,18.4375 Q162.8906,18.4375 163.125,18.7031 Q163.3594,18.9531 163.3594,19.5625 L163.3594,21.0156 Q163.3594,21.625 163.125,21.8906 Q162.8906,22.1563 162.5156,22.1563 Q162.1719,22.1563 161.9688,21.9531 Q161.7656,21.7656 161.6563,21.25 Q161.6094,20.8906 161.4219,20.7031 Q161.0938,20.3281 160.4844,20.1094 Q159.875,19.8906 159.25,19.8906 Q158.4844,19.8906 157.8438,20.2188 Q157.2188,20.5469 156.7188,21.2969 Q156.2344,22.0469 156.2344,23.0781 L156.2344,24.1719 Q156.2344,25.4063 157.125,26.2344 Q158.0156,27.0469 159.6094,27.0469 Q160.5469,27.0469 161.2031,26.7969 Q161.5938,26.6406 162.0156,26.2031 Q162.2813,25.9375 162.4219,25.8594 Q162.5781,25.7813 162.7813,25.7813 Q163.1094,25.7813 163.3594,26.0469 Q163.625,26.2969 163.625,26.6406 Q163.625,26.9844 163.2813,27.3906 Q162.7813,27.9688 161.9844,28.2969 Q160.9063,28.75 159.6094,28.75 Q158.0938,28.75 156.8906,28.125 Q155.9063,27.625 155.2188,26.5625 Q154.5313,25.4844 154.5313,24.2031 L154.5313,23.0469 Q154.5313,21.7188 155.1406,20.5781 Q155.7656,19.4219 156.8594,18.8125 Q157.9531,18.1875 159.1875,18.1875 Q159.9219,18.1875 160.5625,18.3594 Q161.2188,18.5156 161.7656,18.875 Z " fill="#000000"/><text fill="#000000" font-family="sans-serif" font-size="12" lengthAdjust="spacing" textLength="8" x="173" y="27.9102">B</text><line style="stroke:#A80036;stroke-width:1.5;" x1="145" x2="183" y1="39" y2="39"/><line style="stroke:#A80036;stroke-width:1.5;" x1="145" x2="183" y1="47" y2="47"/><!--MD5=[5e2eec62a50b26b6b0db6c12e4ee289c]
link A to B--><path codeLine="1" d="M47.24,40.93 C57.16,45.26 69.43,49.83 81,52 C93.67,54.38 97.33,54.38 110,52 C119.76,50.17 130.02,46.63 138.95,42.97 " fill="none" id="A-to-B" style="stroke:#A80036;stroke-width:1.0;"/><polygon fill="#A80036" points="143.76,40.93,133.9124,40.7728,139.1591,42.8875,137.0444,48.1342,143.76,40.93" style="stroke:#A80036;stroke-width:1.0;"/><text fill="#000000" font-family="sans-serif" font-size="13" lengthAdjust="spacing" textLength="27" x="82" y="48.4951">hello</text><!--MD5=[2c777c0c38089c390787dfc0786ecb92]
link B to A--><path codeLine="2" d="M143.7,31 C117.76,31 73.12,31 47.21,31 " fill="none" id="B-A" style="stroke:#A80036;stroke-width:1.0;"/><text fill="#000000" font-family="sans-serif" font-size="13" lengthAdjust="spacing" textLength="60" x="65.5" y="24.4951">go away!!!</text><!--MD5=[226e8d940ee0604674cba80f2bdb6782]
@startuml
A->B: hello
B-A: go away!!!
@enduml

PlantUML version 1.2021.10(Mon Aug 30 21:43:48 SGT 2021)
(GPL source distribution)
Java Runtime: Java(TM) SE Runtime Environment
JVM: Java HotSpot(TM) 64-Bit Server VM
Default Encoding: Cp1252
Language: en
Country: US
--></g></svg>