<?xml version="1.0" encoding="UTF-8" standalone="no"?><svg xmlns="http://www.w3.org/2000/svg" xmlns:xlink="http://www.w3.org/1999/xlink" contentScriptType="application/ecmascript" contentStyleType="text/css" height="158px" preserveAspectRatio="none" style="width:1137px;height:158px;background:#FFFFFF;" version="1.1" viewBox="0 0 1137 158" width="1137px" zoomAndPan="magnify"><defs><filter height="300%" id="fmdx9whlwv7qx" width="300%" x="-1" y="-1"><feGaussianBlur result="blurOut" stdDeviation="2.0"/><feColorMatrix in="blurOut" result="blurOut2" type="matrix" values="0 0 0 0 0 0 0 0 0 0 0 0 0 0 0 0 0 0 .4 0"/><feOffset dx="4.0" dy="4.0" in="blurOut2" result="blurOut3"/><feBlend in="SourceGraphic" in2="blurOut3" mode="normal"/></filter></defs><g><!--MD5=[a26742e47b457b6d1a64cf88e0d36868]
cluster button--><polygon fill="#FFFFFF" filter="url(#fmdx9whlwv7qx)" points="311.5,64.9,363.5,64.9,370.5,88.5094,443.5,88.5094,443.5,151.9,311.5,151.9,311.5,64.9" style="stroke:#000000;stroke-width:1.5;"/><line style="stroke:#000000;stroke-width:1.5;" x1="311.5" x2="370.5" y1="88.5094" y2="88.5094"/><text fill="#000000" font-family="sans-serif" font-size="14" font-weight="bold" lengthAdjust="spacing" textLength="46" x="315.5" y="81.4332">button</text><rect fill="#FEFECE" filter="url(#fmdx9whlwv7qx)" height="35.0938" rx="12.5" ry="12.5" style="stroke:#A80036;stroke-width:1.5;" width="100" x="327.5" y="100.9"/><text fill="#000000" font-family="sans-serif" font-size="12" lengthAdjust="spacing" textLength="80" x="337.5" y="123.357">CSHL:click log</text><rect fill="#FEFECE" filter="url(#fmdx9whlwv7qx)" height="35.0938" rx="12.5" ry="12.5" style="stroke:#A80036;stroke-width:1.5;" width="47" x="7" y="100.9"/><text fill="#000000" font-family="sans-serif" font-size="12" lengthAdjust="spacing" textLength="27" x="17" y="123.357">MOP</text><rect fill="#FEFECE" filter="url(#fmdx9whlwv7qx)" height="35.0938" rx="12.5" ry="12.5" style="stroke:#A80036;stroke-width:1.5;" width="53" x="460" y="100.9"/><text fill="#000000" font-family="sans-serif" font-size="12" lengthAdjust="spacing" textLength="33" x="470" y="123.357">CSHL</text><rect fill="#FEFECE" filter="url(#fmdx9whlwv7qx)" height="35.0938" rx="12.5" ry="12.5" style="stroke:#A80036;stroke-width:1.5;" width="291" x="832" y="100.9"/><text fill="#000000" font-family="sans-serif" font-size="12" lengthAdjust="spacing" textLength="271" x="842" y="123.357">CSHL: construct singpass authentication endpoint</text><rect fill="#FEFECE" filter="url(#fmdx9whlwv7qx)" height="35.0938" rx="12.5" ry="12.5" style="stroke:#A80036;stroke-width:1.5;" width="278" x="533.5" y="100.9"/><text fill="#000000" font-family="sans-serif" font-size="12" lengthAdjust="spacing" textLength="258" x="543.5" y="123.357">MOP: instruct browser to redirect to singpass op</text><rect fill="#FEFECE" filter="url(#fmdx9whlwv7qx)" height="35.0938" rx="12.5" ry="12.5" style="stroke:#A80036;stroke-width:1.5;" width="221" x="74" y="100.9"/><text fill="#000000" font-family="sans-serif" font-size="12" lengthAdjust="spacing" textLength="201" x="84" y="123.357">SingPass OP: redirect to singpass op</text><!--MD5=[2b4ab2b3191825110d24a51eebea0661]
link MOP to CSHL:click log--><path d="M34.18,100.7 C39.29,81.18 50.62,50.7 73.5,36.9 C115.75,11.42 249.89,18.09 295.5,36.9 C324.6,48.9 348.82,76.79 363.22,96.59 " fill="none" id="MOP-to-CSHL:click log" style="stroke:#A80036;stroke-width:1.0;"/><polygon fill="#A80036" points="366.14,100.69,364.1606,91.0421,363.2325,96.6223,357.6523,95.6942,366.14,100.69" style="stroke:#A80036;stroke-width:1.0;"/><!--MD5=[d029feb38301e8e3b736d9e136c88bb1]
link CSHL to CSHL: construct singpass authentication endpoint--><path d="M491.03,100.65 C497.08,81.07 509.88,50.54 533.5,36.9 C586.99,6 751.32,22.92 811.5,36.9 C861.87,48.6 914.58,77.84 946.73,97.92 " fill="none" id="CSHL-to-CSHL: construct singpass authentication endpoint" style="stroke:#A80036;stroke-width:1.0;"/><polygon fill="#A80036" points="951.33,100.81,945.8576,92.6214,947.1029,98.1395,941.5848,99.3848,951.33,100.81" style="stroke:#A80036;stroke-width:1.0;"/><!--MD5=[2aeb0855b1e631679db85b769ac05137]
link CSHL to MOP: instruct browser to redirect to singpass op--><path d="M513.02,118.4 C518.08,118.4 523.14,118.4 528.2,118.4 " fill="none" id="CSHL-to-MOP: instruct browser to redirect to singpass op" style="stroke:#A80036;stroke-width:1.0;"/><polygon fill="#A80036" points="533.27,118.4,524.27,114.4,528.27,118.4,524.27,122.4,533.27,118.4" style="stroke:#A80036;stroke-width:1.0;"/><!--MD5=[0348a99ce26ca74055158e40bb5f1621]
link MOP to SingPass OP: redirect to singpass op--><path d="M54.26,118.4 C59.06,118.4 63.85,118.4 68.65,118.4 " fill="none" id="MOP-to-SingPass OP: redirect to singpass op" style="stroke:#A80036;stroke-width:1.0;"/><polygon fill="#A80036" points="73.85,118.4,64.85,114.4,68.85,118.4,64.85,122.4,73.85,118.4" style="stroke:#A80036;stroke-width:1.0;"/><!--MD5=[c841f4a0cd28fb87aa120ceaaef2ecbf]
@startuml
MOP -> CSHL:click login button
CSHL -> CSHL: construct singpass authentication endpoint
CSHL -> MOP: instruct browser to redirect to singpass op
MOP -> SingPass OP: redirect to singpass op
@enduml

PlantUML version 1.2021.10(Mon Aug 30 21:43:48 SGT 2021)
(GPL source distribution)
Java Runtime: Java(TM) SE Runtime Environment
JVM: Java HotSpot(TM) 64-Bit Server VM
Default Encoding: Cp1252
Language: en
Country: US
--></g></svg>