<?xml version="1.0" encoding="UTF-8" standalone="no"?><svg xmlns="http://www.w3.org/2000/svg" xmlns:xlink="http://www.w3.org/1999/xlink" contentScriptType="application/ecmascript" contentStyleType="text/css" height="145px" preserveAspectRatio="none" style="width:1031px;height:145px;background:#FFFFFF;" version="1.1" viewBox="0 0 1031 145" width="1031px" zoomAndPan="magnify"><defs><filter height="300%" id="f12fr07tq37pml" width="300%" x="-1" y="-1"><feGaussianBlur result="blurOut" stdDeviation="2.0"/><feColorMatrix in="blurOut" result="blurOut2" type="matrix" values="0 0 0 0 0 0 0 0 0 0 0 0 0 0 0 0 0 0 .4 0"/><feOffset dx="4.0" dy="4.0" in="blurOut2" result="blurOut3"/><feBlend in="SourceGraphic" in2="blurOut3" mode="normal"/></filter></defs><g><!--MD5=[a26742e47b457b6d1a64cf88e0d36868]
cluster button--><polygon fill="#FFFFFF" filter="url(#f12fr07tq37pml)" points="229.5,51.17,281.5,51.17,288.5,74.7794,385.5,74.7794,385.5,138.17,229.5,138.17,229.5,51.17" style="stroke:#000000;stroke-width:1.5;"/><line style="stroke:#000000;stroke-width:1.5;" x1="229.5" x2="288.5" y1="74.7794" y2="74.7794"/><text fill="#000000" font-family="sans-serif" font-size="14" font-weight="bold" lengthAdjust="spacing" textLength="46" x="233.5" y="67.7032">button</text><!--MD5=[d3c595dc7835f149e458c44ed889a37a]
cluster page--><polygon fill="#FFFFFF" filter="url(#f12fr07tq37pml)" points="800.5,51.17,840.5,51.17,847.5,74.7794,1014.5,74.7794,1014.5,138.17,800.5,138.17,800.5,51.17" style="stroke:#000000;stroke-width:1.5;"/><line style="stroke:#000000;stroke-width:1.5;" x1="800.5" x2="847.5" y1="74.7794" y2="74.7794"/><text fill="#000000" font-family="sans-serif" font-size="14" font-weight="bold" lengthAdjust="spacing" textLength="34" x="804.5" y="67.7032">page</text><rect fill="#FEFECE" filter="url(#f12fr07tq37pml)" height="35.0938" rx="12.5" ry="12.5" style="stroke:#A80036;stroke-width:1.5;" width="124" x="245.5" y="87.17"/><text fill="#000000" font-family="sans-serif" font-size="12" lengthAdjust="spacing" textLength="104" x="255.5" y="109.627">CSHL:        click log</text><rect fill="#FEFECE" filter="url(#f12fr07tq37pml)" height="35.0938" rx="12.5" ry="12.5" style="stroke:#A80036;stroke-width:1.5;" width="182" x="816.5" y="87.17"/><text fill="#000000" font-family="sans-serif" font-size="12" lengthAdjust="spacing" textLength="162" x="826.5" y="109.627">MOP : redirect to singpass log</text><rect fill="#FEFECE" filter="url(#f12fr07tq37pml)" height="35.0938" rx="12.5" ry="12.5" style="stroke:#A80036;stroke-width:1.5;" width="47" x="7" y="87.17"/><text fill="#000000" font-family="sans-serif" font-size="12" lengthAdjust="spacing" textLength="27" x="17" y="109.627">MOP</text><rect fill="#FEFECE" filter="url(#f12fr07tq37pml)" height="35.0938" rx="12.5" ry="12.5" style="stroke:#A80036;stroke-width:1.5;" width="53" x="402" y="87.17"/><text fill="#000000" font-family="sans-serif" font-size="12" lengthAdjust="spacing" textLength="33" x="412" y="109.627">CSHL</text><rect fill="#FEFECE" filter="url(#f12fr07tq37pml)" height="35.0938" rx="12.5" ry="12.5" style="stroke:#A80036;stroke-width:1.5;" width="309" x="475" y="87.17"/><text fill="#000000" font-family="sans-serif" font-size="12" lengthAdjust="spacing" textLength="289" x="485" y="109.627">CSHL:       construct singpass authentication endpoint</text><rect fill="#FEFECE" filter="url(#f12fr07tq37pml)" height="35.0938" rx="12.5" ry="12.5" style="stroke:#A80036;stroke-width:1.5;" width="139" x="74" y="87.17"/><text fill="#000000" font-family="sans-serif" font-size="12" lengthAdjust="spacing" textLength="119" x="84" y="109.627">SingPass OP: redirect</text><!--MD5=[bd75a8a17f9a11e08b27fe7950be29b6]
link MOP to CSHL:        click log--><path d="M34.18,86.97 C39.29,67.45 50.62,36.97 73.5,23.17 C100.14,7.1 184.35,12.29 213.5,23.17 C245.37,35.06 273.61,63.17 290.62,83.04 " fill="none" id="MOP-to-CSHL:        click log" style="stroke:#A80036;stroke-width:1.0;"/><polygon fill="#A80036" points="293.87,86.9,291.1292,77.4402,290.648,83.0766,285.0116,82.5954,293.87,86.9" style="stroke:#A80036;stroke-width:1.0;"/><!--MD5=[9d64540aca652e20169a4a46a0c5de1f]
link CSHL to CSHL:       construct singpass authentication endpoint--><path d="M455.2,104.67 C460.03,104.67 464.86,104.67 469.7,104.67 " fill="none" id="CSHL-to-CSHL:       construct singpass authentication endpoint" style="stroke:#A80036;stroke-width:1.0;"/><polygon fill="#A80036" points="474.94,104.67,465.94,100.67,469.94,104.67,465.94,108.67,474.94,104.67" style="stroke:#A80036;stroke-width:1.0;"/><!--MD5=[26b652e8e33696dc139e96347c50b058]
link CSHL to MOP : redirect to singpass log--><path d="M433.03,86.92 C439.08,67.34 451.88,36.81 475.5,23.17 C505.23,6 751.63,13.27 784.5,23.17 C823.69,34.97 861.86,63.78 885.03,83.78 " fill="none" id="CSHL-to-MOP : redirect to singpass log" style="stroke:#A80036;stroke-width:1.0;"/><polygon fill="#A80036" points="888.9,87.16,884.7416,78.2321,885.13,83.8756,879.4865,84.264,888.9,87.16" style="stroke:#A80036;stroke-width:1.0;"/><!--MD5=[185df72dff6a25115fccdc98c7514415]
link MOP to SingPass OP: redirect--><path d="M54.34,104.67 C59.11,104.67 63.89,104.67 68.66,104.67 " fill="none" id="MOP-to-SingPass OP: redirect" style="stroke:#A80036;stroke-width:1.0;"/><polygon fill="#A80036" points="73.84,104.67,64.84,100.67,68.84,104.67,64.84,108.67,73.84,104.67" style="stroke:#A80036;stroke-width:1.0;"/><!--MD5=[3da53d5b9acabb51677e2b4d309242ae]
@startuml
MOP -> CSHL:        click login button
CSHL -> CSHL:       construct singpass authentication endpoint
CSHL -> MOP : redirect to singpass login page
MOP -> SingPass OP: redirect
@enduml

PlantUML version 1.2021.10(Mon Aug 30 21:43:48 SGT 2021)
(GPL source distribution)
Java Runtime: Java(TM) SE Runtime Environment
JVM: Java HotSpot(TM) 64-Bit Server VM
Default Encoding: Cp1252
Language: en
Country: US
--></g></svg>