<?xml version="1.0" encoding="UTF-8" standalone="no"?><svg xmlns="http://www.w3.org/2000/svg" xmlns:xlink="http://www.w3.org/1999/xlink" contentScriptType="application/ecmascript" contentStyleType="text/css" height="160px" preserveAspectRatio="none" style="width:989px;height:160px;background:#FFFFFF;" version="1.1" viewBox="0 0 989 160" width="989px" zoomAndPan="magnify"><defs><filter height="300%" id="ffg8dxj8wzt37" width="300%" x="-1" y="-1"><feGaussianBlur result="blurOut" stdDeviation="2.0"/><feColorMatrix in="blurOut" result="blurOut2" type="matrix" values="0 0 0 0 0 0 0 0 0 0 0 0 0 0 0 0 0 0 .4 0"/><feOffset dx="4.0" dy="4.0" in="blurOut2" result="blurOut3"/><feBlend in="SourceGraphic" in2="blurOut3" mode="normal"/></filter></defs><g><!--MD5=[a26742e47b457b6d1a64cf88e0d36868]
cluster button--><polygon fill="#FFFFFF" filter="url(#ffg8dxj8wzt37)" points="229.5,66.35,281.5,66.35,288.5,89.9594,361.5,89.9594,361.5,153.35,229.5,153.35,229.5,66.35" style="stroke:#000000;stroke-width:1.5;"/><line style="stroke:#000000;stroke-width:1.5;" x1="229.5" x2="288.5" y1="89.9594" y2="89.9594"/><text fill="#000000" font-family="sans-serif" font-size="14" font-weight="bold" lengthAdjust="spacing" textLength="46" x="233.5" y="82.8832">button</text><!--MD5=[d3c595dc7835f149e458c44ed889a37a]
cluster page--><polygon fill="#FFFFFF" filter="url(#ffg8dxj8wzt37)" points="758.5,66.35,798.5,66.35,805.5,89.9594,972.5,89.9594,972.5,153.35,758.5,153.35,758.5,66.35" style="stroke:#000000;stroke-width:1.5;"/><line style="stroke:#000000;stroke-width:1.5;" x1="758.5" x2="805.5" y1="89.9594" y2="89.9594"/><text fill="#000000" font-family="sans-serif" font-size="14" font-weight="bold" lengthAdjust="spacing" textLength="34" x="762.5" y="82.8832">page</text><rect fill="#FEFECE" filter="url(#ffg8dxj8wzt37)" height="35.0938" rx="12.5" ry="12.5" style="stroke:#A80036;stroke-width:1.5;" width="100" x="245.5" y="102.35"/><text fill="#000000" font-family="sans-serif" font-size="12" lengthAdjust="spacing" textLength="80" x="255.5" y="124.807">CSHL:click log</text><rect fill="#FEFECE" filter="url(#ffg8dxj8wzt37)" height="35.0938" rx="12.5" ry="12.5" style="stroke:#A80036;stroke-width:1.5;" width="182" x="774.5" y="102.35"/><text fill="#000000" font-family="sans-serif" font-size="12" lengthAdjust="spacing" textLength="162" x="784.5" y="124.807">MOP : redirect to singpass log</text><rect fill="#FEFECE" filter="url(#ffg8dxj8wzt37)" height="35.0938" rx="12.5" ry="12.5" style="stroke:#A80036;stroke-width:1.5;" width="47" x="7" y="102.35"/><text fill="#000000" font-family="sans-serif" font-size="12" lengthAdjust="spacing" textLength="27" x="17" y="124.807">MOP</text><rect fill="#FEFECE" filter="url(#ffg8dxj8wzt37)" height="35.0938" rx="12.5" ry="12.5" style="stroke:#A80036;stroke-width:1.5;" width="53" x="378" y="102.35"/><text fill="#000000" font-family="sans-serif" font-size="12" lengthAdjust="spacing" textLength="33" x="388" y="124.807">CSHL</text><rect fill="#FEFECE" filter="url(#ffg8dxj8wzt37)" height="35.0938" rx="12.5" ry="12.5" style="stroke:#A80036;stroke-width:1.5;" width="291" x="451" y="102.35"/><text fill="#000000" font-family="sans-serif" font-size="12" lengthAdjust="spacing" textLength="271" x="461" y="124.807">CSHL: construct singpass authentication endpoint</text><rect fill="#FEFECE" filter="url(#ffg8dxj8wzt37)" height="35.0938" rx="12.5" ry="12.5" style="stroke:#A80036;stroke-width:1.5;" width="139" x="74" y="102.35"/><text fill="#000000" font-family="sans-serif" font-size="12" lengthAdjust="spacing" textLength="119" x="84" y="124.807">SingPass OP: redirect</text><!--MD5=[2b4ab2b3191825110d24a51eebea0661]
link MOP to CSHL:click log--><path d="M34.18,102.15 C39.29,82.63 50.62,52.15 73.5,38.35 C100.14,22.28 184.74,26.49 213.5,38.35 C242.6,50.35 266.82,78.24 281.22,98.04 " fill="none" id="MOP-to-CSHL:click log" style="stroke:#A80036;stroke-width:1.0;"/><polygon fill="#A80036" points="284.14,102.14,282.1606,92.4921,281.2325,98.0723,275.6523,97.1442,284.14,102.14" style="stroke:#A80036;stroke-width:1.0;"/><!--MD5=[d029feb38301e8e3b736d9e136c88bb1]
link CSHL to CSHL: construct singpass authentication endpoint--><path d="M431.13,119.85 C435.95,119.85 440.77,119.85 445.59,119.85 " fill="none" id="CSHL-to-CSHL: construct singpass authentication endpoint" style="stroke:#A80036;stroke-width:1.0;"/><polygon fill="#A80036" points="450.83,119.85,441.83,115.85,445.83,119.85,441.83,123.85,450.83,119.85" style="stroke:#A80036;stroke-width:1.0;"/><!--MD5=[26b652e8e33696dc139e96347c50b058]
link CSHL to MOP : redirect to singpass log--><path d="M409.03,102.1 C415.08,82.52 427.88,51.99 451.5,38.35 C507.49,6 680.58,19.7 742.5,38.35 C781.69,50.15 819.86,78.96 843.03,98.96 " fill="none" id="CSHL-to-MOP : redirect to singpass log" style="stroke:#A80036;stroke-width:1.0;"/><polygon fill="#A80036" points="846.9,102.34,842.7416,93.4121,843.13,99.0556,837.4865,99.444,846.9,102.34" style="stroke:#A80036;stroke-width:1.0;"/><!--MD5=[185df72dff6a25115fccdc98c7514415]
link MOP to SingPass OP: redirect--><path d="M54.34,119.85 C59.11,119.85 63.89,119.85 68.66,119.85 " fill="none" id="MOP-to-SingPass OP: redirect" style="stroke:#A80036;stroke-width:1.0;"/><polygon fill="#A80036" points="73.84,119.85,64.84,115.85,68.84,119.85,64.84,123.85,73.84,119.85" style="stroke:#A80036;stroke-width:1.0;"/><!--MD5=[2d61f1274293cbdc4e8db62320a77e72]
@startuml
MOP -> CSHL:click login button
CSHL -> CSHL: construct singpass authentication endpoint
CSHL -> MOP : redirect to singpass login page
MOP -> SingPass OP: redirect
@enduml

PlantUML version 1.2021.10(Mon Aug 30 21:43:48 SGT 2021)
(GPL source distribution)
Java Runtime: Java(TM) SE Runtime Environment
JVM: Java HotSpot(TM) 64-Bit Server VM
Default Encoding: Cp1252
Language: en
Country: US
--></g></svg>