<?xml version="1.0" encoding="UTF-8" standalone="no"?><svg xmlns="http://www.w3.org/2000/svg" xmlns:xlink="http://www.w3.org/1999/xlink" contentScriptType="application/ecmascript" contentStyleType="text/css" height="314px" preserveAspectRatio="none" style="width:608px;height:314px;background:#FFFFFF;" version="1.1" viewBox="0 0 608 314" width="608px" zoomAndPan="magnify"><defs><filter height="300%" id="f12fjznj5r9c58" width="300%" x="-1" y="-1"><feGaussianBlur result="blurOut" stdDeviation="2.0"/><feColorMatrix in="blurOut" result="blurOut2" type="matrix" values="0 0 0 0 0 0 0 0 0 0 0 0 0 0 0 0 0 0 .4 0"/><feOffset dx="4.0" dy="4.0" in="blurOut2" result="blurOut3"/><feBlend in="SourceGraphic" in2="blurOut3" mode="normal"/></filter></defs><g><line style="stroke:#A80036;stroke-width:1.0;stroke-dasharray:5.0,5.0;" x1="30" x2="30" y1="41.6094" y2="269.7188"/><line style="stroke:#A80036;stroke-width:1.0;stroke-dasharray:5.0,5.0;" x1="151.5" x2="151.5" y1="41.6094" y2="269.7188"/><line style="stroke:#A80036;stroke-width:1.0;stroke-dasharray:5.0,5.0;" x1="296.5" x2="296.5" y1="41.6094" y2="269.7188"/><line style="stroke:#A80036;stroke-width:1.0;stroke-dasharray:5.0,5.0;" x1="559" x2="559" y1="41.6094" y2="269.7188"/><rect fill="#FEFECE" filter="url(#f12fjznj5r9c58)" height="31.6094" style="stroke:#A80036;stroke-width:1.5;" width="46" x="5" y="5"/><text fill="#000000" font-family="sans-serif" font-size="14" lengthAdjust="spacing" textLength="32" x="12" y="26.5332">MOP</text><rect fill="#FEFECE" filter="url(#f12fjznj5r9c58)" height="31.6094" style="stroke:#A80036;stroke-width:1.5;" width="46" x="5" y="268.7188"/><text fill="#000000" font-family="sans-serif" font-size="14" lengthAdjust="spacing" textLength="32" x="12" y="290.252">MOP</text><rect fill="#FEFECE" filter="url(#f12fjznj5r9c58)" height="31.6094" style="stroke:#A80036;stroke-width:1.5;" width="33" x="133.5" y="5"/><text fill="#000000" font-family="sans-serif" font-size="14" lengthAdjust="spacing" textLength="19" x="140.5" y="26.5332">BR</text><rect fill="#FEFECE" filter="url(#f12fjznj5r9c58)" height="31.6094" style="stroke:#A80036;stroke-width:1.5;" width="33" x="133.5" y="268.7188"/><text fill="#000000" font-family="sans-serif" font-size="14" lengthAdjust="spacing" textLength="19" x="140.5" y="290.252">BR</text><rect fill="#FEFECE" filter="url(#f12fjznj5r9c58)" height="31.6094" style="stroke:#A80036;stroke-width:1.5;" width="51" x="269.5" y="5"/><text fill="#000000" font-family="sans-serif" font-size="14" lengthAdjust="spacing" textLength="37" x="276.5" y="26.5332">CSHL</text><rect fill="#FEFECE" filter="url(#f12fjznj5r9c58)" height="31.6094" style="stroke:#A80036;stroke-width:1.5;" width="51" x="269.5" y="268.7188"/><text fill="#000000" font-family="sans-serif" font-size="14" lengthAdjust="spacing" textLength="37" x="276.5" y="290.252">CSHL</text><rect fill="#FEFECE" filter="url(#f12fjznj5r9c58)" height="31.6094" style="stroke:#A80036;stroke-width:1.5;" width="52" x="531" y="5"/><text fill="#000000" font-family="sans-serif" font-size="14" lengthAdjust="spacing" textLength="38" x="538" y="26.5332">SPOP</text><rect fill="#FEFECE" filter="url(#f12fjznj5r9c58)" height="31.6094" style="stroke:#A80036;stroke-width:1.5;" width="52" x="531" y="268.7188"/><text fill="#000000" font-family="sans-serif" font-size="14" lengthAdjust="spacing" textLength="38" x="538" y="290.252">SPOP</text><polygon fill="#A80036" points="140,69.9609,150,73.9609,140,77.9609,144,73.9609" style="stroke:#A80036;stroke-width:1.0;"/><line style="stroke:#A80036;stroke-width:1.0;" x1="30" x2="146" y1="73.9609" y2="73.9609"/><text fill="#000000" font-family="sans-serif" font-size="13" lengthAdjust="spacing" textLength="98" x="37" y="69.1045">click login button</text><line style="stroke:#A80036;stroke-width:1.0;" x1="297" x2="339" y1="104.3125" y2="104.3125"/><line style="stroke:#A80036;stroke-width:1.0;" x1="339" x2="339" y1="104.3125" y2="117.3125"/><line style="stroke:#A80036;stroke-width:1.0;" x1="298" x2="339" y1="117.3125" y2="117.3125"/><polygon fill="#A80036" points="308,113.3125,298,117.3125,308,121.3125,304,117.3125" style="stroke:#A80036;stroke-width:1.0;"/><text fill="#000000" font-family="sans-serif" font-size="13" lengthAdjust="spacing" textLength="248" x="304" y="99.4561">construct singpass authentication endpoint</text><polygon fill="#A80036" points="41,143.6641,31,147.6641,41,151.6641,37,147.6641" style="stroke:#A80036;stroke-width:1.0;"/><line style="stroke:#A80036;stroke-width:1.0;" x1="35" x2="296" y1="147.6641" y2="147.6641"/><text fill="#000000" font-family="sans-serif" font-size="13" lengthAdjust="spacing" textLength="243" x="47" y="142.8076">instruct browser to redirect to singpass op</text><polygon fill="#A80036" points="547,174.0156,557,178.0156,547,182.0156,551,178.0156" style="stroke:#A80036;stroke-width:1.0;"/><line style="stroke:#A80036;stroke-width:1.0;" x1="30" x2="553" y1="178.0156" y2="178.0156"/><text fill="#000000" font-family="sans-serif" font-size="13" lengthAdjust="spacing" textLength="132" x="37" y="173.1592">redirect to singpass op</text><line style="stroke:#A80036;stroke-width:1.0;" x1="559" x2="601" y1="208.3672" y2="208.3672"/><line style="stroke:#A80036;stroke-width:1.0;" x1="601" x2="601" y1="208.3672" y2="221.3672"/><line style="stroke:#A80036;stroke-width:1.0;" x1="560" x2="601" y1="221.3672" y2="221.3672"/><polygon fill="#A80036" points="570,217.3672,560,221.3672,570,225.3672,566,221.3672" style="stroke:#A80036;stroke-width:1.0;"/><text fill="#000000" font-family="sans-serif" font-size="13" lengthAdjust="spacing" textLength="27" x="566" y="203.5107">login</text><polygon fill="#A80036" points="41,247.7188,31,251.7188,41,255.7188,37,251.7188" style="stroke:#A80036;stroke-width:1.0;"/><line style="stroke:#A80036;stroke-width:1.0;" x1="35" x2="558" y1="251.7188" y2="251.7188"/><text fill="#000000" font-family="sans-serif" font-size="13" lengthAdjust="spacing" textLength="100" x="47" y="246.8623">response back to</text><!--MD5=[3baed66b7c2544083611fedbb71dec26]
@startuml
MOP -> BR:click login button
CSHL -> CSHL: construct singpass authentication endpoint
CSHL -> MOP: instruct browser to redirect to singpass op
MOP -> SPOP: redirect to singpass op
SPOP -> SPOP: login
SPOP -> MOP: response back to
@enduml

PlantUML version 1.2021.10(Mon Aug 30 21:43:48 SGT 2021)
(GPL source distribution)
Java Runtime: Java(TM) SE Runtime Environment
JVM: Java HotSpot(TM) 64-Bit Server VM
Default Encoding: Cp1252
Language: en
Country: US
--></g></svg>