<?xml version="1.0" encoding="UTF-8" standalone="no"?><svg xmlns="http://www.w3.org/2000/svg" xmlns:xlink="http://www.w3.org/1999/xlink" contentScriptType="application/ecmascript" contentStyleType="text/css" height="1185px" preserveAspectRatio="none" style="width:1806px;height:1185px;background:#FFFFFF;" version="1.1" viewBox="0 0 1806 1185" width="1806px" zoomAndPan="magnify"><defs><filter height="300%" id="fku8mr7u8tdqk" width="300%" x="-1" y="-1"><feGaussianBlur result="blurOut" stdDeviation="2.0"/><feColorMatrix in="blurOut" result="blurOut2" type="matrix" values="0 0 0 0 0 0 0 0 0 0 0 0 0 0 0 0 0 0 .4 0"/><feOffset dx="4.0" dy="4.0" in="blurOut2" result="blurOut3"/><feBlend in="SourceGraphic" in2="blurOut3" mode="normal"/></filter></defs><g><line style="stroke:#A80036;stroke-width:1.0;stroke-dasharray:5.0,5.0;" x1="30" x2="30" y1="41.6094" y2="1141.1563"/><line style="stroke:#A80036;stroke-width:1.0;stroke-dasharray:5.0,5.0;" x1="160.5" x2="160.5" y1="41.6094" y2="1141.1563"/><line style="stroke:#A80036;stroke-width:1.0;stroke-dasharray:5.0,5.0;" x1="433" x2="433" y1="41.6094" y2="1141.1563"/><line style="stroke:#A80036;stroke-width:1.0;stroke-dasharray:5.0,5.0;" x1="705" x2="705" y1="41.6094" y2="1141.1563"/><line style="stroke:#A80036;stroke-width:1.0;stroke-dasharray:5.0,5.0;" x1="1146" x2="1146" y1="41.6094" y2="1141.1563"/><line style="stroke:#A80036;stroke-width:1.0;stroke-dasharray:5.0,5.0;" x1="1442" x2="1442" y1="41.6094" y2="1141.1563"/><line style="stroke:#A80036;stroke-width:1.0;stroke-dasharray:5.0,5.0;" x1="1567" x2="1567" y1="41.6094" y2="1141.1563"/><line style="stroke:#A80036;stroke-width:1.0;stroke-dasharray:5.0,5.0;" x1="1706" x2="1706" y1="41.6094" y2="1141.1563"/><rect fill="#FEFECE" filter="url(#fku8mr7u8tdqk)" height="31.6094" style="stroke:#A80036;stroke-width:1.5;" width="46" x="5" y="5"/><text fill="#000000" font-family="sans-serif" font-size="14" lengthAdjust="spacing" textLength="32" x="12" y="26.5332">MOP</text><rect fill="#FEFECE" filter="url(#fku8mr7u8tdqk)" height="31.6094" style="stroke:#A80036;stroke-width:1.5;" width="46" x="5" y="1140.1563"/><text fill="#000000" font-family="sans-serif" font-size="14" lengthAdjust="spacing" textLength="32" x="12" y="1161.6895">MOP</text><rect fill="#FEFECE" filter="url(#fku8mr7u8tdqk)" height="31.6094" style="stroke:#A80036;stroke-width:1.5;" width="33" x="142.5" y="5"/><text fill="#000000" font-family="sans-serif" font-size="14" lengthAdjust="spacing" textLength="19" x="149.5" y="26.5332">BR</text><rect fill="#FEFECE" filter="url(#fku8mr7u8tdqk)" height="31.6094" style="stroke:#A80036;stroke-width:1.5;" width="33" x="142.5" y="1140.1563"/><text fill="#000000" font-family="sans-serif" font-size="14" lengthAdjust="spacing" textLength="19" x="149.5" y="1161.6895">BR</text><rect fill="#FEFECE" filter="url(#fku8mr7u8tdqk)" height="31.6094" style="stroke:#A80036;stroke-width:1.5;" width="130" x="366" y="5"/><text fill="#000000" font-family="sans-serif" font-size="14" lengthAdjust="spacing" textLength="116" x="373" y="26.5332">PortalLoginServlet</text><rect fill="#FEFECE" filter="url(#fku8mr7u8tdqk)" height="31.6094" style="stroke:#A80036;stroke-width:1.5;" width="130" x="366" y="1140.1563"/><text fill="#000000" font-family="sans-serif" font-size="14" lengthAdjust="spacing" textLength="116" x="373" y="1161.6895">PortalLoginServlet</text><rect fill="#FEFECE" filter="url(#fku8mr7u8tdqk)" height="31.6094" style="stroke:#A80036;stroke-width:1.5;" width="154" x="626" y="5"/><text fill="#000000" font-family="sans-serif" font-size="14" lengthAdjust="spacing" textLength="140" x="633" y="26.5332">SingpassOIDCService</text><rect fill="#FEFECE" filter="url(#fku8mr7u8tdqk)" height="31.6094" style="stroke:#A80036;stroke-width:1.5;" width="154" x="626" y="1140.1563"/><text fill="#000000" font-family="sans-serif" font-size="14" lengthAdjust="spacing" textLength="140" x="633" y="1161.6895">SingpassOIDCService</text><rect fill="#FEFECE" filter="url(#fku8mr7u8tdqk)" height="31.6094" style="stroke:#A80036;stroke-width:1.5;" width="52" x="1118" y="5"/><text fill="#000000" font-family="sans-serif" font-size="14" lengthAdjust="spacing" textLength="38" x="1125" y="26.5332">SPOP</text><rect fill="#FEFECE" filter="url(#fku8mr7u8tdqk)" height="31.6094" style="stroke:#A80036;stroke-width:1.5;" width="52" x="1118" y="1140.1563"/><text fill="#000000" font-family="sans-serif" font-size="14" lengthAdjust="spacing" textLength="38" x="1125" y="1161.6895">SPOP</text><rect fill="#FEFECE" filter="url(#fku8mr7u8tdqk)" height="31.6094" style="stroke:#A80036;stroke-width:1.5;" width="146" x="1367" y="5"/><text fill="#000000" font-family="sans-serif" font-size="14" lengthAdjust="spacing" textLength="132" x="1374" y="26.5332">SingPassAuthServlet</text><rect fill="#FEFECE" filter="url(#fku8mr7u8tdqk)" height="31.6094" style="stroke:#A80036;stroke-width:1.5;" width="146" x="1367" y="1140.1563"/><text fill="#000000" font-family="sans-serif" font-size="14" lengthAdjust="spacing" textLength="132" x="1374" y="1161.6895">SingPassAuthServlet</text><rect fill="#FEFECE" filter="url(#fku8mr7u8tdqk)" height="31.6094" style="stroke:#A80036;stroke-width:1.5;" width="76" x="1527" y="5"/><text fill="#000000" font-family="sans-serif" font-size="14" lengthAdjust="spacing" textLength="62" x="1534" y="26.5332">CryptoUtil</text><rect fill="#FEFECE" filter="url(#fku8mr7u8tdqk)" height="31.6094" style="stroke:#A80036;stroke-width:1.5;" width="76" x="1527" y="1140.1563"/><text fill="#000000" font-family="sans-serif" font-size="14" lengthAdjust="spacing" textLength="62" x="1534" y="1161.6895">CryptoUtil</text><rect fill="#FEFECE" filter="url(#fku8mr7u8tdqk)" height="31.6094" style="stroke:#A80036;stroke-width:1.5;" width="175" x="1617" y="5"/><text fill="#000000" font-family="sans-serif" font-size="14" lengthAdjust="spacing" textLength="161" x="1624" y="26.5332">CommonGuavaCacheUtil</text><rect fill="#FEFECE" filter="url(#fku8mr7u8tdqk)" height="31.6094" style="stroke:#A80036;stroke-width:1.5;" width="175" x="1617" y="1140.1563"/><text fill="#000000" font-family="sans-serif" font-size="14" lengthAdjust="spacing" textLength="161" x="1624" y="1161.6895">CommonGuavaCacheUtil</text><polygon fill="#A80036" points="149,69.9609,159,73.9609,149,77.9609,153,73.9609" style="stroke:#A80036;stroke-width:1.0;"/><line style="stroke:#A80036;stroke-width:1.0;" x1="30" x2="155" y1="73.9609" y2="73.9609"/><text fill="#000000" font-family="sans-serif" font-size="13" lengthAdjust="spacing" textLength="98" x="37" y="69.1045">click login button</text><polygon fill="#A80036" points="421,100.3125,431,104.3125,421,108.3125,425,104.3125" style="stroke:#A80036;stroke-width:1.0;"/><line style="stroke:#A80036;stroke-width:1.0;" x1="161" x2="427" y1="104.3125" y2="104.3125"/><text fill="#000000" font-family="sans-serif" font-size="13" lengthAdjust="spacing" textLength="248" x="168" y="99.4561">construct singpass authentication endpoint</text><polygon fill="#A80036" points="693,130.6641,703,134.6641,693,138.6641,697,134.6641" style="stroke:#A80036;stroke-width:1.0;"/><line style="stroke:#A80036;stroke-width:1.0;" x1="433" x2="699" y1="134.6641" y2="134.6641"/><text fill="#000000" font-family="sans-serif" font-size="13" lengthAdjust="spacing" textLength="248" x="440" y="129.8076">construct singpass authentication endpoint</text><polygon fill="#A80036" points="444,161.0156,434,165.0156,444,169.0156,440,165.0156" style="stroke:#A80036;stroke-width:1.0;"/><line style="stroke:#A80036;stroke-width:1.0;" x1="438" x2="704" y1="165.0156" y2="165.0156"/><text fill="#000000" font-family="sans-serif" font-size="13" lengthAdjust="spacing" textLength="138" x="450" y="160.1592">return singpass login url</text><polygon fill="#A80036" points="172,191.3672,162,195.3672,172,199.3672,168,195.3672" style="stroke:#A80036;stroke-width:1.0;"/><line style="stroke:#A80036;stroke-width:1.0;" x1="166" x2="432" y1="195.3672" y2="195.3672"/><text fill="#000000" font-family="sans-serif" font-size="13" lengthAdjust="spacing" textLength="243" x="178" y="190.5107">instruct browser to redirect to singpass op</text><polygon fill="#A80036" points="1134,221.7188,1144,225.7188,1134,229.7188,1138,225.7188" style="stroke:#A80036;stroke-width:1.0;"/><line style="stroke:#A80036;stroke-width:1.0;" x1="161" x2="1140" y1="225.7188" y2="225.7188"/><text fill="#000000" font-family="sans-serif" font-size="13" lengthAdjust="spacing" textLength="132" x="168" y="220.8623">redirect to singpass op</text><line style="stroke:#A80036;stroke-width:1.0;" x1="1146" x2="1188" y1="256.0703" y2="256.0703"/><line style="stroke:#A80036;stroke-width:1.0;" x1="1188" x2="1188" y1="256.0703" y2="269.0703"/><line style="stroke:#A80036;stroke-width:1.0;" x1="1147" x2="1188" y1="269.0703" y2="269.0703"/><polygon fill="#A80036" points="1157,265.0703,1147,269.0703,1157,273.0703,1153,269.0703" style="stroke:#A80036;stroke-width:1.0;"/><text fill="#000000" font-family="sans-serif" font-size="13" lengthAdjust="spacing" textLength="27" x="1153" y="251.2139">login</text><polygon fill="#A80036" points="1430,295.4219,1440,299.4219,1430,303.4219,1434,299.4219" style="stroke:#A80036;stroke-width:1.0;"/><line style="stroke:#A80036;stroke-width:1.0;" x1="1146" x2="1436" y1="299.4219" y2="299.4219"/><text fill="#000000" font-family="sans-serif" font-size="13" lengthAdjust="spacing" textLength="122" x="1153" y="294.5654">response(state,code)</text><polygon fill="#A80036" points="716,325.7734,706,329.7734,716,333.7734,712,329.7734" style="stroke:#A80036;stroke-width:1.0;"/><line style="stroke:#A80036;stroke-width:1.0;" x1="710" x2="1441" y1="329.7734" y2="329.7734"/><text fill="#000000" font-family="sans-serif" font-size="13" lengthAdjust="spacing" textLength="65" x="722" y="324.917">getIdToken</text><line style="stroke:#A80036;stroke-width:1.0;" x1="705" x2="747" y1="360.125" y2="360.125"/><line style="stroke:#A80036;stroke-width:1.0;" x1="747" x2="747" y1="360.125" y2="373.125"/><line style="stroke:#A80036;stroke-width:1.0;" x1="706" x2="747" y1="373.125" y2="373.125"/><polygon fill="#A80036" points="716,369.125,706,373.125,716,377.125,712,373.125" style="stroke:#A80036;stroke-width:1.0;"/><text fill="#000000" font-family="sans-serif" font-size="13" lengthAdjust="spacing" textLength="227" x="712" y="355.2686">validateAuthenticationEndpointRequest</text><line style="stroke:#A80036;stroke-width:1.0;" x1="705" x2="747" y1="403.4766" y2="403.4766"/><line style="stroke:#A80036;stroke-width:1.0;" x1="747" x2="747" y1="403.4766" y2="416.4766"/><line style="stroke:#A80036;stroke-width:1.0;" x1="706" x2="747" y1="416.4766" y2="416.4766"/><polygon fill="#A80036" points="716,412.4766,706,416.4766,716,420.4766,712,416.4766" style="stroke:#A80036;stroke-width:1.0;"/><text fill="#000000" font-family="sans-serif" font-size="13" lengthAdjust="spacing" textLength="138" x="712" y="398.6201">generateClientAssertion</text><polygon fill="#A80036" points="1555,442.8281,1565,446.8281,1555,450.8281,1559,446.8281" style="stroke:#A80036;stroke-width:1.0;"/><line style="stroke:#A80036;stroke-width:1.0;" x1="705" x2="1561" y1="446.8281" y2="446.8281"/><text fill="#000000" font-family="sans-serif" font-size="13" lengthAdjust="spacing" textLength="303" x="712" y="441.9717">get Client JWKS "sig" private key(client-jwks-sig-pri)</text><polygon fill="#A80036" points="716,473.1797,706,477.1797,716,481.1797,712,477.1797" style="stroke:#A80036;stroke-width:1.0;"/><line style="stroke:#A80036;stroke-width:1.0;" x1="710" x2="1566" y1="477.1797" y2="477.1797"/><text fill="#000000" font-family="sans-serif" font-size="13" lengthAdjust="spacing" textLength="100" x="722" y="472.3232">client-jwks-sig-pri</text><line style="stroke:#A80036;stroke-width:1.0;" x1="705" x2="747" y1="507.5313" y2="507.5313"/><line style="stroke:#A80036;stroke-width:1.0;" x1="747" x2="747" y1="507.5313" y2="520.5313"/><line style="stroke:#A80036;stroke-width:1.0;" x1="706" x2="747" y1="520.5313" y2="520.5313"/><polygon fill="#A80036" points="716,516.5313,706,520.5313,716,524.5313,712,520.5313" style="stroke:#A80036;stroke-width:1.0;"/><text fill="#000000" font-family="sans-serif" font-size="13" lengthAdjust="spacing" textLength="329" x="712" y="502.6748">sign jwt (client-jwks-sig-pri) and get clientAssertion(JWS)</text><line style="stroke:#A80036;stroke-width:1.0;" x1="705" x2="747" y1="550.8828" y2="550.8828"/><line style="stroke:#A80036;stroke-width:1.0;" x1="747" x2="747" y1="550.8828" y2="563.8828"/><line style="stroke:#A80036;stroke-width:1.0;" x1="706" x2="747" y1="563.8828" y2="563.8828"/><polygon fill="#A80036" points="716,559.8828,706,563.8828,716,567.8828,712,563.8828" style="stroke:#A80036;stroke-width:1.0;"/><text fill="#000000" font-family="sans-serif" font-size="13" lengthAdjust="spacing" textLength="265" x="712" y="546.0264">get token endpoint json(clientAssertion, code)</text><polygon fill="#A80036" points="1134,590.2344,1144,594.2344,1134,598.2344,1138,594.2344" style="stroke:#A80036;stroke-width:1.0;"/><line style="stroke:#A80036;stroke-width:1.0;" x1="705" x2="1140" y1="594.2344" y2="594.2344"/><text fill="#000000" font-family="sans-serif" font-size="13" lengthAdjust="spacing" textLength="265" x="712" y="589.3779">get token endpoint json(clientAssertion, code)</text><line style="stroke:#A80036;stroke-width:1.0;" x1="1146" x2="1188" y1="624.5859" y2="624.5859"/><line style="stroke:#A80036;stroke-width:1.0;" x1="1188" x2="1188" y1="624.5859" y2="637.5859"/><line style="stroke:#A80036;stroke-width:1.0;" x1="1147" x2="1188" y1="637.5859" y2="637.5859"/><polygon fill="#A80036" points="1157,633.5859,1147,637.5859,1157,641.5859,1153,637.5859" style="stroke:#A80036;stroke-width:1.0;"/><text fill="#000000" font-family="sans-serif" font-size="13" lengthAdjust="spacing" textLength="282" x="1153" y="619.7295">construct jwe (encrypt using client-jwks-enc-pub)</text><polygon fill="#A80036" points="716,663.9375,706,667.9375,716,671.9375,712,667.9375" style="stroke:#A80036;stroke-width:1.0;"/><line style="stroke:#A80036;stroke-width:1.0;" x1="710" x2="1145" y1="667.9375" y2="667.9375"/><text fill="#000000" font-family="sans-serif" font-size="13" lengthAdjust="spacing" textLength="177" x="722" y="663.0811">return with token endpoint json</text><line style="stroke:#A80036;stroke-width:1.0;" x1="705" x2="747" y1="698.2891" y2="698.2891"/><line style="stroke:#A80036;stroke-width:1.0;" x1="747" x2="747" y1="698.2891" y2="711.2891"/><line style="stroke:#A80036;stroke-width:1.0;" x1="706" x2="747" y1="711.2891" y2="711.2891"/><polygon fill="#A80036" points="716,707.2891,706,711.2891,716,715.2891,712,711.2891" style="stroke:#A80036;stroke-width:1.0;"/><text fill="#000000" font-family="sans-serif" font-size="13" lengthAdjust="spacing" textLength="221" x="712" y="693.4326">validate response from token endpoint</text><line style="stroke:#A80036;stroke-width:1.0;" x1="705" x2="747" y1="741.6406" y2="741.6406"/><line style="stroke:#A80036;stroke-width:1.0;" x1="747" x2="747" y1="741.6406" y2="754.6406"/><line style="stroke:#A80036;stroke-width:1.0;" x1="706" x2="747" y1="754.6406" y2="754.6406"/><polygon fill="#A80036" points="716,750.6406,706,754.6406,716,758.6406,712,754.6406" style="stroke:#A80036;stroke-width:1.0;"/><text fill="#000000" font-family="sans-serif" font-size="13" lengthAdjust="spacing" textLength="427" x="712" y="736.7842">decrypt jwe using client jwk endpoint "enc" private key(client-jwks-enc-pri)</text><line style="stroke:#A80036;stroke-width:1.0;" x1="705" x2="747" y1="784.9922" y2="784.9922"/><line style="stroke:#A80036;stroke-width:1.0;" x1="747" x2="747" y1="784.9922" y2="797.9922"/><line style="stroke:#A80036;stroke-width:1.0;" x1="706" x2="747" y1="797.9922" y2="797.9922"/><polygon fill="#A80036" points="716,793.9922,706,797.9922,716,801.9922,712,797.9922" style="stroke:#A80036;stroke-width:1.0;"/><text fill="#000000" font-family="sans-serif" font-size="13" lengthAdjust="spacing" textLength="151" x="712" y="780.1357">extract JWS from payload</text><line style="stroke:#A80036;stroke-width:1.0;" x1="705" x2="747" y1="828.3438" y2="828.3438"/><line style="stroke:#A80036;stroke-width:1.0;" x1="747" x2="747" y1="828.3438" y2="841.3438"/><line style="stroke:#A80036;stroke-width:1.0;" x1="706" x2="747" y1="841.3438" y2="841.3438"/><polygon fill="#A80036" points="716,837.3438,706,841.3438,716,845.3438,712,841.3438" style="stroke:#A80036;stroke-width:1.0;"/><text fill="#000000" font-family="sans-serif" font-size="13" lengthAdjust="spacing" textLength="414" x="712" y="823.4873">verify token signature(using SingPass JWKS Endpoint "sig" public key)</text><polygon fill="#A80036" points="1694.5,867.6953,1704.5,871.6953,1694.5,875.6953,1698.5,871.6953" style="stroke:#A80036;stroke-width:1.0;"/><line style="stroke:#A80036;stroke-width:1.0;" x1="705" x2="1700.5" y1="871.6953" y2="871.6953"/><text fill="#000000" font-family="sans-serif" font-size="13" lengthAdjust="spacing" textLength="261" x="712" y="866.8389">request for SingPass JWKS(sp-jwks-sig-pub)</text><polygon fill="#A80036" points="716,898.0469,706,902.0469,716,906.0469,712,902.0469" style="stroke:#A80036;stroke-width:1.0;"/><line style="stroke:#A80036;stroke-width:1.0;" x1="710" x2="1705.5" y1="902.0469" y2="902.0469"/><text fill="#000000" font-family="sans-serif" font-size="13" lengthAdjust="spacing" textLength="90" x="722" y="897.1904">sp-jwks-sig-pub</text><line style="stroke:#A80036;stroke-width:1.0;" x1="705" x2="747" y1="932.3984" y2="932.3984"/><line style="stroke:#A80036;stroke-width:1.0;" x1="747" x2="747" y1="932.3984" y2="945.3984"/><line style="stroke:#A80036;stroke-width:1.0;" x1="706" x2="747" y1="945.3984" y2="945.3984"/><polygon fill="#A80036" points="716,941.3984,706,945.3984,716,949.3984,712,945.3984" style="stroke:#A80036;stroke-width:1.0;"/><text fill="#000000" font-family="sans-serif" font-size="13" lengthAdjust="spacing" textLength="271" x="712" y="927.542">validate JWS signature (using sp-jwks-sig-pub)</text><line style="stroke:#A80036;stroke-width:1.0;" x1="705" x2="747" y1="975.75" y2="975.75"/><line style="stroke:#A80036;stroke-width:1.0;" x1="747" x2="747" y1="975.75" y2="988.75"/><line style="stroke:#A80036;stroke-width:1.0;" x1="706" x2="747" y1="988.75" y2="988.75"/><polygon fill="#A80036" points="716,984.75,706,988.75,716,992.75,712,988.75" style="stroke:#A80036;stroke-width:1.0;"/><text fill="#000000" font-family="sans-serif" font-size="13" lengthAdjust="spacing" textLength="132" x="712" y="970.8936">validate JWS structure</text><line style="stroke:#A80036;stroke-width:1.0;" x1="705" x2="747" y1="1019.1016" y2="1019.1016"/><line style="stroke:#A80036;stroke-width:1.0;" x1="747" x2="747" y1="1019.1016" y2="1032.1016"/><line style="stroke:#A80036;stroke-width:1.0;" x1="706" x2="747" y1="1032.1016" y2="1032.1016"/><polygon fill="#A80036" points="716,1028.1016,706,1032.1016,716,1036.1016,712,1032.1016" style="stroke:#A80036;stroke-width:1.0;"/><text fill="#000000" font-family="sans-serif" font-size="13" lengthAdjust="spacing" textLength="204" x="712" y="1014.2451">extract "sub"(subject) from payload</text><polygon fill="#A80036" points="1430,1058.4531,1440,1062.4531,1430,1066.4531,1434,1062.4531" style="stroke:#A80036;stroke-width:1.0;"/><line style="stroke:#A80036;stroke-width:1.0;" x1="705" x2="1436" y1="1062.4531" y2="1062.4531"/><text fill="#000000" font-family="sans-serif" font-size="13" lengthAdjust="spacing" textLength="27" x="712" y="1057.5967">login</text><polygon fill="#A80036" points="172,1088.8047,162,1092.8047,172,1096.8047,168,1092.8047" style="stroke:#A80036;stroke-width:1.0;"/><line style="stroke:#A80036;stroke-width:1.0;" x1="166" x2="1441" y1="1092.8047" y2="1092.8047"/><text fill="#000000" font-family="sans-serif" font-size="13" lengthAdjust="spacing" textLength="290" x="178" y="1087.9482">instruct browser to show landing page with login id</text><polygon fill="#A80036" points="41,1119.1563,31,1123.1563,41,1127.1563,37,1123.1563" style="stroke:#A80036;stroke-width:1.0;"/><line style="stroke:#A80036;stroke-width:1.0;" x1="35" x2="160" y1="1123.1563" y2="1123.1563"/><text fill="#000000" font-family="sans-serif" font-size="13" lengthAdjust="spacing" textLength="107" x="47" y="1118.2998">show landing page</text><!--MD5=[292e4d9bc7cf1f7c970b8e68e723bda2]
@startuml
MOP -> BR:click login button
BR -> PortalLoginServlet: construct singpass authentication endpoint
PortalLoginServlet -> SingpassOIDCService: construct singpass authentication endpoint
SingpassOIDCService -> PortalLoginServlet: return singpass login url
PortalLoginServlet -> BR: instruct browser to redirect to singpass op
BR -> SPOP: redirect to singpass op
SPOP -> SPOP: login
SPOP -> SingPassAuthServlet: response(state,code)
SingPassAuthServlet -> SingpassOIDCService: getIdToken
SingpassOIDCService -> SingpassOIDCService: validateAuthenticationEndpointRequest
SingpassOIDCService -> SingpassOIDCService: generateClientAssertion
SingpassOIDCService -> CryptoUtil: get Client JWKS "sig" private key(client-jwks-sig-pri)
CryptoUtil -> SingpassOIDCService: client-jwks-sig-pri
SingpassOIDCService -> SingpassOIDCService: sign jwt (client-jwks-sig-pri) and get clientAssertion(JWS)
SingpassOIDCService -> SingpassOIDCService: get token endpoint json(clientAssertion, code)
SingpassOIDCService -> SPOP: get token endpoint json(clientAssertion, code)
SPOP -> SPOP: construct jwe (encrypt using client-jwks-enc-pub)
SPOP -> SingpassOIDCService: return with token endpoint json
SingpassOIDCService -> SingpassOIDCService: validate response from token endpoint
SingpassOIDCService -> SingpassOIDCService: decrypt jwe using client jwk endpoint "enc" private key(client-jwks-enc-pri)
SingpassOIDCService -> SingpassOIDCService: extract JWS from payload
SingpassOIDCService -> SingpassOIDCService: verify token signature(using SingPass JWKS Endpoint "sig" public key)
SingpassOIDCService -> CommonGuavaCacheUtil: request for SingPass JWKS(sp-jwks-sig-pub)
CommonGuavaCacheUtil -> SingpassOIDCService: sp-jwks-sig-pub
SingpassOIDCService -> SingpassOIDCService: validate JWS signature (using sp-jwks-sig-pub)
SingpassOIDCService -> SingpassOIDCService: validate JWS structure
SingpassOIDCService -> SingpassOIDCService: extract "sub"(subject) from payload
SingpassOIDCService -> SingPassAuthServlet: login
SingPassAuthServlet -> BR: instruct browser to show landing page with login id
BR -> MOP: show landing page
@enduml

PlantUML version 1.2021.10(Mon Aug 30 21:43:48 SGT 2021)
(GPL source distribution)
Java Runtime: Java(TM) SE Runtime Environment
JVM: Java HotSpot(TM) 64-Bit Server VM
Default Encoding: Cp1252
Language: en
Country: US
--></g></svg>