<?xml version="1.0" encoding="UTF-8" standalone="no"?><svg xmlns="http://www.w3.org/2000/svg" xmlns:xlink="http://www.w3.org/1999/xlink" contentScriptType="application/ecmascript" contentStyleType="text/css" height="1038px" preserveAspectRatio="none" style="width:1566px;height:1038px;background:#FFFFFF;" version="1.1" viewBox="0 0 1566 1038" width="1566px" zoomAndPan="magnify"><defs><filter height="300%" id="fzxv7ahp3rvex" width="300%" x="-1" y="-1"><feGaussianBlur result="blurOut" stdDeviation="2.0"/><feColorMatrix in="blurOut" result="blurOut2" type="matrix" values="0 0 0 0 0 0 0 0 0 0 0 0 0 0 0 0 0 0 .4 0"/><feOffset dx="4.0" dy="4.0" in="blurOut2" result="blurOut3"/><feBlend in="SourceGraphic" in2="blurOut3" mode="normal"/></filter></defs><g><line style="stroke:#A80036;stroke-width:1.0;stroke-dasharray:5.0,5.0;" x1="30" x2="30" y1="41.6094" y2="993.75"/><line style="stroke:#A80036;stroke-width:1.0;stroke-dasharray:5.0,5.0;" x1="160.5" x2="160.5" y1="41.6094" y2="993.75"/><line style="stroke:#A80036;stroke-width:1.0;stroke-dasharray:5.0,5.0;" x1="433" x2="433" y1="41.6094" y2="993.75"/><line style="stroke:#A80036;stroke-width:1.0;stroke-dasharray:5.0,5.0;" x1="705" x2="705" y1="41.6094" y2="993.75"/><line style="stroke:#A80036;stroke-width:1.0;stroke-dasharray:5.0,5.0;" x1="1146" x2="1146" y1="41.6094" y2="993.75"/><line style="stroke:#A80036;stroke-width:1.0;stroke-dasharray:5.0,5.0;" x1="1292" x2="1292" y1="41.6094" y2="993.75"/><line style="stroke:#A80036;stroke-width:1.0;stroke-dasharray:5.0,5.0;" x1="1466" x2="1466" y1="41.6094" y2="993.75"/><rect fill="#FEFECE" filter="url(#fzxv7ahp3rvex)" height="31.6094" style="stroke:#A80036;stroke-width:1.5;" width="46" x="5" y="5"/><text fill="#000000" font-family="sans-serif" font-size="14" lengthAdjust="spacing" textLength="32" x="12" y="26.5332">MOP</text><rect fill="#FEFECE" filter="url(#fzxv7ahp3rvex)" height="31.6094" style="stroke:#A80036;stroke-width:1.5;" width="46" x="5" y="992.75"/><text fill="#000000" font-family="sans-serif" font-size="14" lengthAdjust="spacing" textLength="32" x="12" y="1014.2832">MOP</text><rect fill="#FEFECE" filter="url(#fzxv7ahp3rvex)" height="31.6094" style="stroke:#A80036;stroke-width:1.5;" width="33" x="142.5" y="5"/><text fill="#000000" font-family="sans-serif" font-size="14" lengthAdjust="spacing" textLength="19" x="149.5" y="26.5332">BR</text><rect fill="#FEFECE" filter="url(#fzxv7ahp3rvex)" height="31.6094" style="stroke:#A80036;stroke-width:1.5;" width="33" x="142.5" y="992.75"/><text fill="#000000" font-family="sans-serif" font-size="14" lengthAdjust="spacing" textLength="19" x="149.5" y="1014.2832">BR</text><rect fill="#FEFECE" filter="url(#fzxv7ahp3rvex)" height="31.6094" style="stroke:#A80036;stroke-width:1.5;" width="130" x="366" y="5"/><text fill="#000000" font-family="sans-serif" font-size="14" lengthAdjust="spacing" textLength="116" x="373" y="26.5332">PortalLoginServlet</text><rect fill="#FEFECE" filter="url(#fzxv7ahp3rvex)" height="31.6094" style="stroke:#A80036;stroke-width:1.5;" width="130" x="366" y="992.75"/><text fill="#000000" font-family="sans-serif" font-size="14" lengthAdjust="spacing" textLength="116" x="373" y="1014.2832">PortalLoginServlet</text><rect fill="#FEFECE" filter="url(#fzxv7ahp3rvex)" height="31.6094" style="stroke:#A80036;stroke-width:1.5;" width="154" x="626" y="5"/><text fill="#000000" font-family="sans-serif" font-size="14" lengthAdjust="spacing" textLength="140" x="633" y="26.5332">SingpassOIDCService</text><rect fill="#FEFECE" filter="url(#fzxv7ahp3rvex)" height="31.6094" style="stroke:#A80036;stroke-width:1.5;" width="154" x="626" y="992.75"/><text fill="#000000" font-family="sans-serif" font-size="14" lengthAdjust="spacing" textLength="140" x="633" y="1014.2832">SingpassOIDCService</text><rect fill="#FEFECE" filter="url(#fzxv7ahp3rvex)" height="31.6094" style="stroke:#A80036;stroke-width:1.5;" width="52" x="1118" y="5"/><text fill="#000000" font-family="sans-serif" font-size="14" lengthAdjust="spacing" textLength="38" x="1125" y="26.5332">SPOP</text><rect fill="#FEFECE" filter="url(#fzxv7ahp3rvex)" height="31.6094" style="stroke:#A80036;stroke-width:1.5;" width="52" x="1118" y="992.75"/><text fill="#000000" font-family="sans-serif" font-size="14" lengthAdjust="spacing" textLength="38" x="1125" y="1014.2832">SPOP</text><rect fill="#FEFECE" filter="url(#fzxv7ahp3rvex)" height="31.6094" style="stroke:#A80036;stroke-width:1.5;" width="146" x="1217" y="5"/><text fill="#000000" font-family="sans-serif" font-size="14" lengthAdjust="spacing" textLength="132" x="1224" y="26.5332">SingPassAuthServlet</text><rect fill="#FEFECE" filter="url(#fzxv7ahp3rvex)" height="31.6094" style="stroke:#A80036;stroke-width:1.5;" width="146" x="1217" y="992.75"/><text fill="#000000" font-family="sans-serif" font-size="14" lengthAdjust="spacing" textLength="132" x="1224" y="1014.2832">SingPassAuthServlet</text><rect fill="#FEFECE" filter="url(#fzxv7ahp3rvex)" height="31.6094" style="stroke:#A80036;stroke-width:1.5;" width="175" x="1377" y="5"/><text fill="#000000" font-family="sans-serif" font-size="14" lengthAdjust="spacing" textLength="161" x="1384" y="26.5332">CommonGuavaCacheUtil</text><rect fill="#FEFECE" filter="url(#fzxv7ahp3rvex)" height="31.6094" style="stroke:#A80036;stroke-width:1.5;" width="175" x="1377" y="992.75"/><text fill="#000000" font-family="sans-serif" font-size="14" lengthAdjust="spacing" textLength="161" x="1384" y="1014.2832">CommonGuavaCacheUtil</text><polygon fill="#A80036" points="149,69.9609,159,73.9609,149,77.9609,153,73.9609" style="stroke:#A80036;stroke-width:1.0;"/><line style="stroke:#A80036;stroke-width:1.0;" x1="30" x2="155" y1="73.9609" y2="73.9609"/><text fill="#000000" font-family="sans-serif" font-size="13" lengthAdjust="spacing" textLength="98" x="37" y="69.1045">click login button</text><polygon fill="#A80036" points="421,100.3125,431,104.3125,421,108.3125,425,104.3125" style="stroke:#A80036;stroke-width:1.0;"/><line style="stroke:#A80036;stroke-width:1.0;" x1="161" x2="427" y1="104.3125" y2="104.3125"/><text fill="#000000" font-family="sans-serif" font-size="13" lengthAdjust="spacing" textLength="248" x="168" y="99.4561">construct singpass authentication endpoint</text><polygon fill="#A80036" points="693,130.6641,703,134.6641,693,138.6641,697,134.6641" style="stroke:#A80036;stroke-width:1.0;"/><line style="stroke:#A80036;stroke-width:1.0;" x1="433" x2="699" y1="134.6641" y2="134.6641"/><text fill="#000000" font-family="sans-serif" font-size="13" lengthAdjust="spacing" textLength="248" x="440" y="129.8076">construct singpass authentication endpoint</text><polygon fill="#A80036" points="444,161.0156,434,165.0156,444,169.0156,440,165.0156" style="stroke:#A80036;stroke-width:1.0;"/><line style="stroke:#A80036;stroke-width:1.0;" x1="438" x2="704" y1="165.0156" y2="165.0156"/><text fill="#000000" font-family="sans-serif" font-size="13" lengthAdjust="spacing" textLength="138" x="450" y="160.1592">return singpass login url</text><polygon fill="#A80036" points="172,191.3672,162,195.3672,172,199.3672,168,195.3672" style="stroke:#A80036;stroke-width:1.0;"/><line style="stroke:#A80036;stroke-width:1.0;" x1="166" x2="432" y1="195.3672" y2="195.3672"/><text fill="#000000" font-family="sans-serif" font-size="13" lengthAdjust="spacing" textLength="243" x="178" y="190.5107">instruct browser to redirect to singpass op</text><polygon fill="#A80036" points="1134,221.7188,1144,225.7188,1134,229.7188,1138,225.7188" style="stroke:#A80036;stroke-width:1.0;"/><line style="stroke:#A80036;stroke-width:1.0;" x1="161" x2="1140" y1="225.7188" y2="225.7188"/><text fill="#000000" font-family="sans-serif" font-size="13" lengthAdjust="spacing" textLength="132" x="168" y="220.8623">redirect to singpass op</text><line style="stroke:#A80036;stroke-width:1.0;" x1="1146" x2="1188" y1="256.0703" y2="256.0703"/><line style="stroke:#A80036;stroke-width:1.0;" x1="1188" x2="1188" y1="256.0703" y2="269.0703"/><line style="stroke:#A80036;stroke-width:1.0;" x1="1147" x2="1188" y1="269.0703" y2="269.0703"/><polygon fill="#A80036" points="1157,265.0703,1147,269.0703,1157,273.0703,1153,269.0703" style="stroke:#A80036;stroke-width:1.0;"/><text fill="#000000" font-family="sans-serif" font-size="13" lengthAdjust="spacing" textLength="27" x="1153" y="251.2139">login</text><polygon fill="#A80036" points="1280,295.4219,1290,299.4219,1280,303.4219,1284,299.4219" style="stroke:#A80036;stroke-width:1.0;"/><line style="stroke:#A80036;stroke-width:1.0;" x1="1146" x2="1286" y1="299.4219" y2="299.4219"/><text fill="#000000" font-family="sans-serif" font-size="13" lengthAdjust="spacing" textLength="122" x="1153" y="294.5654">response(state,code)</text><polygon fill="#A80036" points="716,325.7734,706,329.7734,716,333.7734,712,329.7734" style="stroke:#A80036;stroke-width:1.0;"/><line style="stroke:#A80036;stroke-width:1.0;" x1="710" x2="1291" y1="329.7734" y2="329.7734"/><text fill="#000000" font-family="sans-serif" font-size="13" lengthAdjust="spacing" textLength="65" x="722" y="324.917">getIdToken</text><line style="stroke:#A80036;stroke-width:1.0;" x1="705" x2="747" y1="360.125" y2="360.125"/><line style="stroke:#A80036;stroke-width:1.0;" x1="747" x2="747" y1="360.125" y2="373.125"/><line style="stroke:#A80036;stroke-width:1.0;" x1="706" x2="747" y1="373.125" y2="373.125"/><polygon fill="#A80036" points="716,369.125,706,373.125,716,377.125,712,373.125" style="stroke:#A80036;stroke-width:1.0;"/><text fill="#000000" font-family="sans-serif" font-size="13" lengthAdjust="spacing" textLength="227" x="712" y="355.2686">validateAuthenticationEndpointRequest</text><line style="stroke:#A80036;stroke-width:1.0;" x1="705" x2="747" y1="403.4766" y2="403.4766"/><line style="stroke:#A80036;stroke-width:1.0;" x1="747" x2="747" y1="403.4766" y2="416.4766"/><line style="stroke:#A80036;stroke-width:1.0;" x1="706" x2="747" y1="416.4766" y2="416.4766"/><polygon fill="#A80036" points="716,412.4766,706,416.4766,716,420.4766,712,416.4766" style="stroke:#A80036;stroke-width:1.0;"/><text fill="#000000" font-family="sans-serif" font-size="13" lengthAdjust="spacing" textLength="138" x="712" y="398.6201">generateClientAssertion</text><line style="stroke:#A80036;stroke-width:1.0;" x1="705" x2="747" y1="446.8281" y2="446.8281"/><line style="stroke:#A80036;stroke-width:1.0;" x1="747" x2="747" y1="446.8281" y2="459.8281"/><line style="stroke:#A80036;stroke-width:1.0;" x1="706" x2="747" y1="459.8281" y2="459.8281"/><polygon fill="#A80036" points="716,455.8281,706,459.8281,716,463.8281,712,459.8281" style="stroke:#A80036;stroke-width:1.0;"/><text fill="#000000" font-family="sans-serif" font-size="13" lengthAdjust="spacing" textLength="265" x="712" y="441.9717">get token endpoint json(clientAssertion, code)</text><polygon fill="#A80036" points="1134,486.1797,1144,490.1797,1134,494.1797,1138,490.1797" style="stroke:#A80036;stroke-width:1.0;"/><line style="stroke:#A80036;stroke-width:1.0;" x1="705" x2="1140" y1="490.1797" y2="490.1797"/><text fill="#000000" font-family="sans-serif" font-size="13" lengthAdjust="spacing" textLength="265" x="712" y="485.3232">get token endpoint json(clientAssertion, code)</text><polygon fill="#A80036" points="716,516.5313,706,520.5313,716,524.5313,712,520.5313" style="stroke:#A80036;stroke-width:1.0;"/><line style="stroke:#A80036;stroke-width:1.0;" x1="710" x2="1145" y1="520.5313" y2="520.5313"/><text fill="#000000" font-family="sans-serif" font-size="13" lengthAdjust="spacing" textLength="177" x="722" y="515.6748">return with token endpoint json</text><line style="stroke:#A80036;stroke-width:1.0;" x1="705" x2="747" y1="550.8828" y2="550.8828"/><line style="stroke:#A80036;stroke-width:1.0;" x1="747" x2="747" y1="550.8828" y2="563.8828"/><line style="stroke:#A80036;stroke-width:1.0;" x1="706" x2="747" y1="563.8828" y2="563.8828"/><polygon fill="#A80036" points="716,559.8828,706,563.8828,716,567.8828,712,563.8828" style="stroke:#A80036;stroke-width:1.0;"/><text fill="#000000" font-family="sans-serif" font-size="13" lengthAdjust="spacing" textLength="221" x="712" y="546.0264">validate response from token endpoint</text><line style="stroke:#A80036;stroke-width:1.0;" x1="705" x2="747" y1="594.2344" y2="594.2344"/><line style="stroke:#A80036;stroke-width:1.0;" x1="747" x2="747" y1="594.2344" y2="607.2344"/><line style="stroke:#A80036;stroke-width:1.0;" x1="706" x2="747" y1="607.2344" y2="607.2344"/><polygon fill="#A80036" points="716,603.2344,706,607.2344,716,611.2344,712,607.2344" style="stroke:#A80036;stroke-width:1.0;"/><text fill="#000000" font-family="sans-serif" font-size="13" lengthAdjust="spacing" textLength="427" x="712" y="589.3779">decrypt jwe using client jwk endpoint "enc" private key(client-jwks-enc-pri)</text><line style="stroke:#A80036;stroke-width:1.0;" x1="705" x2="747" y1="637.5859" y2="637.5859"/><line style="stroke:#A80036;stroke-width:1.0;" x1="747" x2="747" y1="637.5859" y2="650.5859"/><line style="stroke:#A80036;stroke-width:1.0;" x1="706" x2="747" y1="650.5859" y2="650.5859"/><polygon fill="#A80036" points="716,646.5859,706,650.5859,716,654.5859,712,650.5859" style="stroke:#A80036;stroke-width:1.0;"/><text fill="#000000" font-family="sans-serif" font-size="13" lengthAdjust="spacing" textLength="151" x="712" y="632.7295">extract JWS from payload</text><line style="stroke:#A80036;stroke-width:1.0;" x1="705" x2="747" y1="680.9375" y2="680.9375"/><line style="stroke:#A80036;stroke-width:1.0;" x1="747" x2="747" y1="680.9375" y2="693.9375"/><line style="stroke:#A80036;stroke-width:1.0;" x1="706" x2="747" y1="693.9375" y2="693.9375"/><polygon fill="#A80036" points="716,689.9375,706,693.9375,716,697.9375,712,693.9375" style="stroke:#A80036;stroke-width:1.0;"/><text fill="#000000" font-family="sans-serif" font-size="13" lengthAdjust="spacing" textLength="414" x="712" y="676.0811">verify token signature(using SingPass JWKS Endpoint "sig" public key)</text><polygon fill="#A80036" points="1454.5,720.2891,1464.5,724.2891,1454.5,728.2891,1458.5,724.2891" style="stroke:#A80036;stroke-width:1.0;"/><line style="stroke:#A80036;stroke-width:1.0;" x1="705" x2="1460.5" y1="724.2891" y2="724.2891"/><text fill="#000000" font-family="sans-serif" font-size="13" lengthAdjust="spacing" textLength="163" x="712" y="719.4326">request for SingPass JWKS</text><polygon fill="#A80036" points="716,750.6406,706,754.6406,716,758.6406,712,754.6406" style="stroke:#A80036;stroke-width:1.0;"/><line style="stroke:#A80036;stroke-width:1.0;" x1="710" x2="1465.5" y1="754.6406" y2="754.6406"/><text fill="#000000" font-family="sans-serif" font-size="13" lengthAdjust="spacing" textLength="363" x="722" y="749.7842">SingPass JWKS (with 1 JWK and JWK consists of public key)</text><line style="stroke:#A80036;stroke-width:1.0;" x1="705" x2="747" y1="784.9922" y2="784.9922"/><line style="stroke:#A80036;stroke-width:1.0;" x1="747" x2="747" y1="784.9922" y2="797.9922"/><line style="stroke:#A80036;stroke-width:1.0;" x1="706" x2="747" y1="797.9922" y2="797.9922"/><polygon fill="#A80036" points="716,793.9922,706,797.9922,716,801.9922,712,797.9922" style="stroke:#A80036;stroke-width:1.0;"/><text fill="#000000" font-family="sans-serif" font-size="13" lengthAdjust="spacing" textLength="240" x="712" y="780.1357">validate JWS signature (using public key)</text><line style="stroke:#A80036;stroke-width:1.0;" x1="705" x2="747" y1="828.3438" y2="828.3438"/><line style="stroke:#A80036;stroke-width:1.0;" x1="747" x2="747" y1="828.3438" y2="841.3438"/><line style="stroke:#A80036;stroke-width:1.0;" x1="706" x2="747" y1="841.3438" y2="841.3438"/><polygon fill="#A80036" points="716,837.3438,706,841.3438,716,845.3438,712,841.3438" style="stroke:#A80036;stroke-width:1.0;"/><text fill="#000000" font-family="sans-serif" font-size="13" lengthAdjust="spacing" textLength="132" x="712" y="823.4873">validate JWS structure</text><line style="stroke:#A80036;stroke-width:1.0;" x1="705" x2="747" y1="871.6953" y2="871.6953"/><line style="stroke:#A80036;stroke-width:1.0;" x1="747" x2="747" y1="871.6953" y2="884.6953"/><line style="stroke:#A80036;stroke-width:1.0;" x1="706" x2="747" y1="884.6953" y2="884.6953"/><polygon fill="#A80036" points="716,880.6953,706,884.6953,716,888.6953,712,884.6953" style="stroke:#A80036;stroke-width:1.0;"/><text fill="#000000" font-family="sans-serif" font-size="13" lengthAdjust="spacing" textLength="204" x="712" y="866.8389">extract "sub"(subject) from payload</text><polygon fill="#A80036" points="1280,911.0469,1290,915.0469,1280,919.0469,1284,915.0469" style="stroke:#A80036;stroke-width:1.0;"/><line style="stroke:#A80036;stroke-width:1.0;" x1="705" x2="1286" y1="915.0469" y2="915.0469"/><text fill="#000000" font-family="sans-serif" font-size="13" lengthAdjust="spacing" textLength="27" x="712" y="910.1904">login</text><polygon fill="#A80036" points="172,941.3984,162,945.3984,172,949.3984,168,945.3984" style="stroke:#A80036;stroke-width:1.0;"/><line style="stroke:#A80036;stroke-width:1.0;" x1="166" x2="1291" y1="945.3984" y2="945.3984"/><text fill="#000000" font-family="sans-serif" font-size="13" lengthAdjust="spacing" textLength="290" x="178" y="940.542">instruct browser to show landing page with login id</text><polygon fill="#A80036" points="41,971.75,31,975.75,41,979.75,37,975.75" style="stroke:#A80036;stroke-width:1.0;"/><line style="stroke:#A80036;stroke-width:1.0;" x1="35" x2="160" y1="975.75" y2="975.75"/><text fill="#000000" font-family="sans-serif" font-size="13" lengthAdjust="spacing" textLength="107" x="47" y="970.8936">show landing page</text><!--MD5=[38824375e86a9f3ea2f38e28db177bb6]
@startuml
MOP -> BR:click login button
BR -> PortalLoginServlet: construct singpass authentication endpoint
PortalLoginServlet -> SingpassOIDCService: construct singpass authentication endpoint
SingpassOIDCService -> PortalLoginServlet: return singpass login url
PortalLoginServlet -> BR: instruct browser to redirect to singpass op
BR -> SPOP: redirect to singpass op
SPOP -> SPOP: login
SPOP -> SingPassAuthServlet: response(state,code)
SingPassAuthServlet -> SingpassOIDCService: getIdToken
SingpassOIDCService -> SingpassOIDCService: validateAuthenticationEndpointRequest
SingpassOIDCService -> SingpassOIDCService: generateClientAssertion
SingpassOIDCService -> SingpassOIDCService: get token endpoint json(clientAssertion, code)
SingpassOIDCService -> SPOP: get token endpoint json(clientAssertion, code)
SPOP -> SingpassOIDCService: return with token endpoint json
SingpassOIDCService -> SingpassOIDCService: validate response from token endpoint
SingpassOIDCService -> SingpassOIDCService: decrypt jwe using client jwk endpoint "enc" private key(client-jwks-enc-pri)
SingpassOIDCService -> SingpassOIDCService: extract JWS from payload
SingpassOIDCService -> SingpassOIDCService: verify token signature(using SingPass JWKS Endpoint "sig" public key)
SingpassOIDCService -> CommonGuavaCacheUtil: request for SingPass JWKS
CommonGuavaCacheUtil -> SingpassOIDCService: SingPass JWKS (with 1 JWK and JWK consists of public key)
SingpassOIDCService -> SingpassOIDCService: validate JWS signature (using public key)
SingpassOIDCService -> SingpassOIDCService: validate JWS structure
SingpassOIDCService -> SingpassOIDCService: extract "sub"(subject) from payload
SingpassOIDCService -> SingPassAuthServlet: login
SingPassAuthServlet -> BR: instruct browser to show landing page with login id
BR -> MOP: show landing page
@enduml

PlantUML version 1.2021.10(Mon Aug 30 21:43:48 SGT 2021)
(GPL source distribution)
Java Runtime: Java(TM) SE Runtime Environment
JVM: Java HotSpot(TM) 64-Bit Server VM
Default Encoding: Cp1252
Language: en
Country: US
--></g></svg>