<?xml version="1.0" encoding="UTF-8" standalone="no"?><svg xmlns="http://www.w3.org/2000/svg" xmlns:xlink="http://www.w3.org/1999/xlink" contentScriptType="application/ecmascript" contentStyleType="text/css" height="69px" preserveAspectRatio="none" style="width:190px;height:69px;background:#FFFFFF;" version="1.1" viewBox="0 0 190 69" width="190px" zoomAndPan="magnify"><defs><filter height="300%" id="f1rekmtpq336a7" width="300%" x="-1" y="-1"><feGaussianBlur result="blurOut" stdDeviation="2.0"/><feColorMatrix in="blurOut" result="blurOut2" type="matrix" values="0 0 0 0 0 0 0 0 0 0 0 0 0 0 0 0 0 0 .4 0"/><feOffset dx="4.0" dy="4.0" in="blurOut2" result="blurOut3"/><feBlend in="SourceGraphic" in2="blurOut3" mode="normal"/></filter></defs><g><!--MD5=[a46ee5ce0ceb0380cf446a08a056dce4]
class A--><rect fill="#FEFECE" filter="url(#f1rekmtpq336a7)" height="48" id="A" style="stroke:#A80036;stroke-width:1.5;" width="40" x="7" y="7"/><ellipse cx="22" cy="23" fill="#ADD1B2" rx="11" ry="11" style="stroke:#A80036;stroke-width:1.0;"/><path d="M24.7656,18.875 Q24.9219,18.6563 25.1094,18.5469 Q25.2969,18.4375 25.5156,18.4375 Q25.8906,18.4375 26.125,18.7031 Q26.3594,18.9531 26.3594,19.5625 L26.3594,21.0156 Q26.3594,21.625 26.125,21.8906 Q25.8906,22.1563 25.5156,22.1563 Q25.1719,22.1563 24.9688,21.9531 Q24.7656,21.7656 24.6563,21.25 Q24.6094,20.8906 24.4219,20.7031 Q24.0938,20.3281 23.4844,20.1094 Q22.875,19.8906 22.25,19.8906 Q21.4844,19.8906 20.8438,20.2188 Q20.2188,20.5469 19.7188,21.2969 Q19.2344,22.0469 19.2344,23.0781 L19.2344,24.1719 Q19.2344,25.4063 20.125,26.2344 Q21.0156,27.0469 22.6094,27.0469 Q23.5469,27.0469 24.2031,26.7969 Q24.5938,26.6406 25.0156,26.2031 Q25.2813,25.9375 25.4219,25.8594 Q25.5781,25.7813 25.7813,25.7813 Q26.1094,25.7813 26.3594,26.0469 Q26.625,26.2969 26.625,26.6406 Q26.625,26.9844 26.2813,27.3906 Q25.7813,27.9688 24.9844,28.2969 Q23.9063,28.75 22.6094,28.75 Q21.0938,28.75 19.8906,28.125 Q18.9063,27.625 18.2188,26.5625 Q17.5313,25.4844 17.5313,24.2031 L17.5313,23.0469 Q17.5313,21.7188 18.1406,20.5781 Q18.7656,19.4219 19.8594,18.8125 Q20.9531,18.1875 22.1875,18.1875 Q22.9219,18.1875 23.5625,18.3594 Q24.2188,18.5156 24.7656,18.875 Z " fill="#000000"/><text fill="#000000" font-family="sans-serif" font-size="12" lengthAdjust="spacing" textLength="8" x="36" y="27.9102">A</text><line style="stroke:#A80036;stroke-width:1.5;" x1="8" x2="46" y1="39" y2="39"/><line style="stroke:#A80036;stroke-width:1.5;" x1="8" x2="46" y1="47" y2="47"/><!--MD5=[69c451c751c414e37549b782190fef46]
class B--><rect fill="#FEFECE" filter="url(#f1rekmtpq336a7)" height="48" id="B" style="stroke:#A80036;stroke-width:1.5;" width="40" x="136" y="7"/><ellipse cx="151" cy="23" fill="#ADD1B2" rx="11" ry="11" style="stroke:#A80036;stroke-width:1.0;"/><path d="M153.7656,18.875 Q153.9219,18.6563 154.1094,18.5469 Q154.2969,18.4375 154.5156,18.4375 Q154.8906,18.4375 155.125,18.7031 Q155.3594,18.9531 155.3594,19.5625 L155.3594,21.0156 Q155.3594,21.625 155.125,21.8906 Q154.8906,22.1563 154.5156,22.1563 Q154.1719,22.1563 153.9688,21.9531 Q153.7656,21.7656 153.6563,21.25 Q153.6094,20.8906 153.4219,20.7031 Q153.0938,20.3281 152.4844,20.1094 Q151.875,19.8906 151.25,19.8906 Q150.4844,19.8906 149.8438,20.2188 Q149.2188,20.5469 148.7188,21.2969 Q148.2344,22.0469 148.2344,23.0781 L148.2344,24.1719 Q148.2344,25.4063 149.125,26.2344 Q150.0156,27.0469 151.6094,27.0469 Q152.5469,27.0469 153.2031,26.7969 Q153.5938,26.6406 154.0156,26.2031 Q154.2813,25.9375 154.4219,25.8594 Q154.5781,25.7813 154.7813,25.7813 Q155.1094,25.7813 155.3594,26.0469 Q155.625,26.2969 155.625,26.6406 Q155.625,26.9844 155.2813,27.3906 Q154.7813,27.9688 153.9844,28.2969 Q152.9063,28.75 151.6094,28.75 Q150.0938,28.75 148.8906,28.125 Q147.9063,27.625 147.2188,26.5625 Q146.5313,25.4844 146.5313,24.2031 L146.5313,23.0469 Q146.5313,21.7188 147.1406,20.5781 Q147.7656,19.4219 148.8594,18.8125 Q149.9531,18.1875 151.1875,18.1875 Q151.9219,18.1875 152.5625,18.3594 Q153.2188,18.5156 153.7656,18.875 Z " fill="#000000"/><text fill="#000000" font-family="sans-serif" font-size="12" lengthAdjust="spacing" textLength="8" x="165" y="27.9102">B</text><line style="stroke:#A80036;stroke-width:1.5;" x1="137" x2="175" y1="39" y2="39"/><line style="stroke:#A80036;stroke-width:1.5;" x1="137" x2="175" y1="47" y2="47"/><!--MD5=[5e2eec62a50b26b6b0db6c12e4ee289c]
link A to B--><path codeLine="1" d="M47.33,41.7 C56.19,45.79 66.85,49.95 77,52 C89.63,54.55 93.37,54.55 106,52 C114.41,50.31 123.16,47.16 130.95,43.81 " fill="none" id="A-to-B" style="stroke:#A80036;stroke-width:1.0;"/><polygon fill="#A80036" points="135.67,41.7,125.8211,41.6943,131.0998,43.728,129.066,49.0067,135.67,41.7" style="stroke:#A80036;stroke-width:1.0;"/><text fill="#000000" font-family="sans-serif" font-size="13" lengthAdjust="spacing" textLength="27" x="78" y="48.4951">hello</text><!--MD5=[2c777c0c38089c390787dfc0786ecb92]
link B to A--><path codeLine="2" d="M135.99,31 C111.81,31 71.39,31 47.16,31 " fill="none" id="B-A" style="stroke:#A80036;stroke-width:1.0;"/><text fill="#000000" font-family="sans-serif" font-size="13" lengthAdjust="spacing" textLength="52" x="65.5" y="24.4951">go away!</text><!--MD5=[ad5139c3da57af4826791120ce492e88]
@startuml
A->B: hello
B-A: go away!
@enduml

PlantUML version 1.2021.10(Mon Aug 30 21:43:48 SGT 2021)
(GPL source distribution)
Java Runtime: Java(TM) SE Runtime Environment
JVM: Java HotSpot(TM) 64-Bit Server VM
Default Encoding: Cp1252
Language: en
Country: US
--></g></svg>