<?xml version="1.0" encoding="UTF-8" standalone="no"?><svg xmlns="http://www.w3.org/2000/svg" xmlns:xlink="http://www.w3.org/1999/xlink" contentScriptType="application/ecmascript" contentStyleType="text/css" height="726px" preserveAspectRatio="none" style="width:1223px;height:726px;background:#FFFFFF;" version="1.1" viewBox="0 0 1223 726" width="1223px" zoomAndPan="magnify"><defs><filter height="300%" id="fuy8u0dpjji85" width="300%" x="-1" y="-1"><feGaussianBlur result="blurOut" stdDeviation="2.0"/><feColorMatrix in="blurOut" result="blurOut2" type="matrix" values="0 0 0 0 0 0 0 0 0 0 0 0 0 0 0 0 0 0 .4 0"/><feOffset dx="4.0" dy="4.0" in="blurOut2" result="blurOut3"/><feBlend in="SourceGraphic" in2="blurOut3" mode="normal"/></filter></defs><g><line style="stroke:#A80036;stroke-width:1.0;stroke-dasharray:5.0,5.0;" x1="30" x2="30" y1="41.6094" y2="681.5859"/><line style="stroke:#A80036;stroke-width:1.0;stroke-dasharray:5.0,5.0;" x1="151.5" x2="151.5" y1="41.6094" y2="681.5859"/><line style="stroke:#A80036;stroke-width:1.0;stroke-dasharray:5.0,5.0;" x1="424" x2="424" y1="41.6094" y2="681.5859"/><line style="stroke:#A80036;stroke-width:1.0;stroke-dasharray:5.0,5.0;" x1="696" x2="696" y1="41.6094" y2="681.5859"/><line style="stroke:#A80036;stroke-width:1.0;stroke-dasharray:5.0,5.0;" x1="937" x2="937" y1="41.6094" y2="681.5859"/><line style="stroke:#A80036;stroke-width:1.0;stroke-dasharray:5.0,5.0;" x1="1138" x2="1138" y1="41.6094" y2="681.5859"/><rect fill="#FEFECE" filter="url(#fuy8u0dpjji85)" height="31.6094" style="stroke:#A80036;stroke-width:1.5;" width="46" x="5" y="5"/><text fill="#000000" font-family="sans-serif" font-size="14" lengthAdjust="spacing" textLength="32" x="12" y="26.5332">MOP</text><rect fill="#FEFECE" filter="url(#fuy8u0dpjji85)" height="31.6094" style="stroke:#A80036;stroke-width:1.5;" width="46" x="5" y="680.5859"/><text fill="#000000" font-family="sans-serif" font-size="14" lengthAdjust="spacing" textLength="32" x="12" y="702.1191">MOP</text><rect fill="#FEFECE" filter="url(#fuy8u0dpjji85)" height="31.6094" style="stroke:#A80036;stroke-width:1.5;" width="33" x="133.5" y="5"/><text fill="#000000" font-family="sans-serif" font-size="14" lengthAdjust="spacing" textLength="19" x="140.5" y="26.5332">BR</text><rect fill="#FEFECE" filter="url(#fuy8u0dpjji85)" height="31.6094" style="stroke:#A80036;stroke-width:1.5;" width="33" x="133.5" y="680.5859"/><text fill="#000000" font-family="sans-serif" font-size="14" lengthAdjust="spacing" textLength="19" x="140.5" y="702.1191">BR</text><rect fill="#FEFECE" filter="url(#fuy8u0dpjji85)" height="31.6094" style="stroke:#A80036;stroke-width:1.5;" width="130" x="357" y="5"/><text fill="#000000" font-family="sans-serif" font-size="14" lengthAdjust="spacing" textLength="116" x="364" y="26.5332">PortalLoginServlet</text><rect fill="#FEFECE" filter="url(#fuy8u0dpjji85)" height="31.6094" style="stroke:#A80036;stroke-width:1.5;" width="130" x="357" y="680.5859"/><text fill="#000000" font-family="sans-serif" font-size="14" lengthAdjust="spacing" textLength="116" x="364" y="702.1191">PortalLoginServlet</text><rect fill="#FEFECE" filter="url(#fuy8u0dpjji85)" height="31.6094" style="stroke:#A80036;stroke-width:1.5;" width="154" x="617" y="5"/><text fill="#000000" font-family="sans-serif" font-size="14" lengthAdjust="spacing" textLength="140" x="624" y="26.5332">SingpassOIDCService</text><rect fill="#FEFECE" filter="url(#fuy8u0dpjji85)" height="31.6094" style="stroke:#A80036;stroke-width:1.5;" width="154" x="617" y="680.5859"/><text fill="#000000" font-family="sans-serif" font-size="14" lengthAdjust="spacing" textLength="140" x="624" y="702.1191">SingpassOIDCService</text><rect fill="#FEFECE" filter="url(#fuy8u0dpjji85)" height="31.6094" style="stroke:#A80036;stroke-width:1.5;" width="52" x="909" y="5"/><text fill="#000000" font-family="sans-serif" font-size="14" lengthAdjust="spacing" textLength="38" x="916" y="26.5332">SPOP</text><rect fill="#FEFECE" filter="url(#fuy8u0dpjji85)" height="31.6094" style="stroke:#A80036;stroke-width:1.5;" width="52" x="909" y="680.5859"/><text fill="#000000" font-family="sans-serif" font-size="14" lengthAdjust="spacing" textLength="38" x="916" y="702.1191">SPOP</text><rect fill="#FEFECE" filter="url(#fuy8u0dpjji85)" height="31.6094" style="stroke:#A80036;stroke-width:1.5;" width="146" x="1063" y="5"/><text fill="#000000" font-family="sans-serif" font-size="14" lengthAdjust="spacing" textLength="132" x="1070" y="26.5332">SingPassAuthServlet</text><rect fill="#FEFECE" filter="url(#fuy8u0dpjji85)" height="31.6094" style="stroke:#A80036;stroke-width:1.5;" width="146" x="1063" y="680.5859"/><text fill="#000000" font-family="sans-serif" font-size="14" lengthAdjust="spacing" textLength="132" x="1070" y="702.1191">SingPassAuthServlet</text><polygon fill="#A80036" points="140,69.9609,150,73.9609,140,77.9609,144,73.9609" style="stroke:#A80036;stroke-width:1.0;"/><line style="stroke:#A80036;stroke-width:1.0;" x1="30" x2="146" y1="73.9609" y2="73.9609"/><text fill="#000000" font-family="sans-serif" font-size="13" lengthAdjust="spacing" textLength="98" x="37" y="69.1045">click login button</text><polygon fill="#A80036" points="412,100.3125,422,104.3125,412,108.3125,416,104.3125" style="stroke:#A80036;stroke-width:1.0;"/><line style="stroke:#A80036;stroke-width:1.0;" x1="152" x2="418" y1="104.3125" y2="104.3125"/><text fill="#000000" font-family="sans-serif" font-size="13" lengthAdjust="spacing" textLength="248" x="159" y="99.4561">construct singpass authentication endpoint</text><polygon fill="#A80036" points="684,130.6641,694,134.6641,684,138.6641,688,134.6641" style="stroke:#A80036;stroke-width:1.0;"/><line style="stroke:#A80036;stroke-width:1.0;" x1="424" x2="690" y1="134.6641" y2="134.6641"/><text fill="#000000" font-family="sans-serif" font-size="13" lengthAdjust="spacing" textLength="248" x="431" y="129.8076">construct singpass authentication endpoint</text><polygon fill="#A80036" points="435,161.0156,425,165.0156,435,169.0156,431,165.0156" style="stroke:#A80036;stroke-width:1.0;"/><line style="stroke:#A80036;stroke-width:1.0;" x1="429" x2="695" y1="165.0156" y2="165.0156"/><text fill="#000000" font-family="sans-serif" font-size="13" lengthAdjust="spacing" textLength="138" x="441" y="160.1592">return singpass login url</text><polygon fill="#A80036" points="163,191.3672,153,195.3672,163,199.3672,159,195.3672" style="stroke:#A80036;stroke-width:1.0;"/><line style="stroke:#A80036;stroke-width:1.0;" x1="157" x2="423" y1="195.3672" y2="195.3672"/><text fill="#000000" font-family="sans-serif" font-size="13" lengthAdjust="spacing" textLength="243" x="169" y="190.5107">instruct browser to redirect to singpass op</text><polygon fill="#A80036" points="925,221.7188,935,225.7188,925,229.7188,929,225.7188" style="stroke:#A80036;stroke-width:1.0;"/><line style="stroke:#A80036;stroke-width:1.0;" x1="152" x2="931" y1="225.7188" y2="225.7188"/><text fill="#000000" font-family="sans-serif" font-size="13" lengthAdjust="spacing" textLength="132" x="159" y="220.8623">redirect to singpass op</text><line style="stroke:#A80036;stroke-width:1.0;" x1="937" x2="979" y1="256.0703" y2="256.0703"/><line style="stroke:#A80036;stroke-width:1.0;" x1="979" x2="979" y1="256.0703" y2="269.0703"/><line style="stroke:#A80036;stroke-width:1.0;" x1="938" x2="979" y1="269.0703" y2="269.0703"/><polygon fill="#A80036" points="948,265.0703,938,269.0703,948,273.0703,944,269.0703" style="stroke:#A80036;stroke-width:1.0;"/><text fill="#000000" font-family="sans-serif" font-size="13" lengthAdjust="spacing" textLength="27" x="944" y="251.2139">login</text><polygon fill="#A80036" points="1126,295.4219,1136,299.4219,1126,303.4219,1130,299.4219" style="stroke:#A80036;stroke-width:1.0;"/><line style="stroke:#A80036;stroke-width:1.0;" x1="937" x2="1132" y1="299.4219" y2="299.4219"/><text fill="#000000" font-family="sans-serif" font-size="13" lengthAdjust="spacing" textLength="177" x="944" y="294.5654">response back with state,code</text><polygon fill="#A80036" points="707,325.7734,697,329.7734,707,333.7734,703,329.7734" style="stroke:#A80036;stroke-width:1.0;"/><line style="stroke:#A80036;stroke-width:1.0;" x1="701" x2="1137" y1="329.7734" y2="329.7734"/><text fill="#000000" font-family="sans-serif" font-size="13" lengthAdjust="spacing" textLength="65" x="713" y="324.917">getIdToken</text><line style="stroke:#A80036;stroke-width:1.0;" x1="696" x2="738" y1="360.125" y2="360.125"/><line style="stroke:#A80036;stroke-width:1.0;" x1="738" x2="738" y1="360.125" y2="373.125"/><line style="stroke:#A80036;stroke-width:1.0;" x1="697" x2="738" y1="373.125" y2="373.125"/><polygon fill="#A80036" points="707,369.125,697,373.125,707,377.125,703,373.125" style="stroke:#A80036;stroke-width:1.0;"/><text fill="#000000" font-family="sans-serif" font-size="13" lengthAdjust="spacing" textLength="227" x="703" y="355.2686">validateAuthenticationEndpointRequest</text><line style="stroke:#A80036;stroke-width:1.0;" x1="696" x2="738" y1="403.4766" y2="403.4766"/><line style="stroke:#A80036;stroke-width:1.0;" x1="738" x2="738" y1="403.4766" y2="416.4766"/><line style="stroke:#A80036;stroke-width:1.0;" x1="697" x2="738" y1="416.4766" y2="416.4766"/><polygon fill="#A80036" points="707,412.4766,697,416.4766,707,420.4766,703,416.4766" style="stroke:#A80036;stroke-width:1.0;"/><text fill="#000000" font-family="sans-serif" font-size="13" lengthAdjust="spacing" textLength="138" x="703" y="398.6201">generateClientAssertion</text><line style="stroke:#A80036;stroke-width:1.0;" x1="696" x2="738" y1="446.8281" y2="446.8281"/><line style="stroke:#A80036;stroke-width:1.0;" x1="738" x2="738" y1="446.8281" y2="459.8281"/><line style="stroke:#A80036;stroke-width:1.0;" x1="697" x2="738" y1="459.8281" y2="459.8281"/><polygon fill="#A80036" points="707,455.8281,697,459.8281,707,463.8281,703,459.8281" style="stroke:#A80036;stroke-width:1.0;"/><text fill="#000000" font-family="sans-serif" font-size="13" lengthAdjust="spacing" textLength="135" x="703" y="441.9717">get token endpoint json</text><polygon fill="#A80036" points="925,486.1797,935,490.1797,925,494.1797,929,490.1797" style="stroke:#A80036;stroke-width:1.0;"/><line style="stroke:#A80036;stroke-width:1.0;" x1="696" x2="931" y1="490.1797" y2="490.1797"/><text fill="#000000" font-family="sans-serif" font-size="13" lengthAdjust="spacing" textLength="135" x="703" y="485.3232">get token endpoint json</text><line style="stroke:#A80036;stroke-width:1.0;" x1="696" x2="738" y1="520.5313" y2="520.5313"/><line style="stroke:#A80036;stroke-width:1.0;" x1="738" x2="738" y1="520.5313" y2="533.5313"/><line style="stroke:#A80036;stroke-width:1.0;" x1="697" x2="738" y1="533.5313" y2="533.5313"/><polygon fill="#A80036" points="707,529.5313,697,533.5313,707,537.5313,703,533.5313" style="stroke:#A80036;stroke-width:1.0;"/><text fill="#000000" font-family="sans-serif" font-size="13" lengthAdjust="spacing" textLength="221" x="703" y="515.6748">validate response from token endpoint</text><line style="stroke:#A80036;stroke-width:1.0;" x1="696" x2="738" y1="563.8828" y2="563.8828"/><line style="stroke:#A80036;stroke-width:1.0;" x1="738" x2="738" y1="563.8828" y2="576.8828"/><line style="stroke:#A80036;stroke-width:1.0;" x1="697" x2="738" y1="576.8828" y2="576.8828"/><polygon fill="#A80036" points="707,572.8828,697,576.8828,707,580.8828,703,576.8828" style="stroke:#A80036;stroke-width:1.0;"/><text fill="#000000" font-family="sans-serif" font-size="13" lengthAdjust="spacing" textLength="66" x="703" y="559.0264">decrypt jwe</text><line style="stroke:#A80036;stroke-width:1.0;" x1="696" x2="738" y1="607.2344" y2="607.2344"/><line style="stroke:#A80036;stroke-width:1.0;" x1="738" x2="738" y1="607.2344" y2="620.2344"/><line style="stroke:#A80036;stroke-width:1.0;" x1="697" x2="738" y1="620.2344" y2="620.2344"/><polygon fill="#A80036" points="707,616.2344,697,620.2344,707,624.2344,703,620.2344" style="stroke:#A80036;stroke-width:1.0;"/><text fill="#000000" font-family="sans-serif" font-size="13" lengthAdjust="spacing" textLength="135" x="703" y="602.3779">get token endpoint json</text><line style="stroke:#A80036;stroke-width:1.0;" x1="696" x2="738" y1="650.5859" y2="650.5859"/><line style="stroke:#A80036;stroke-width:1.0;" x1="738" x2="738" y1="650.5859" y2="663.5859"/><line style="stroke:#A80036;stroke-width:1.0;" x1="697" x2="738" y1="663.5859" y2="663.5859"/><polygon fill="#A80036" points="707,659.5859,697,663.5859,707,667.5859,703,663.5859" style="stroke:#A80036;stroke-width:1.0;"/><text fill="#000000" font-family="sans-serif" font-size="13" lengthAdjust="spacing" textLength="135" x="703" y="645.7295">get token endpoint json</text><!--MD5=[413b3ccfd1b7b6219a90bf775b5c88be]
@startuml
MOP -> BR:click login button
BR -> PortalLoginServlet: construct singpass authentication endpoint
PortalLoginServlet -> SingpassOIDCService: construct singpass authentication endpoint
SingpassOIDCService -> PortalLoginServlet: return singpass login url
PortalLoginServlet -> BR: instruct browser to redirect to singpass op
BR -> SPOP: redirect to singpass op
SPOP -> SPOP: login
SPOP -> SingPassAuthServlet: response back with state,code
SingPassAuthServlet -> SingpassOIDCService: getIdToken
SingpassOIDCService -> SingpassOIDCService: validateAuthenticationEndpointRequest
SingpassOIDCService -> SingpassOIDCService: generateClientAssertion
SingpassOIDCService -> SingpassOIDCService: get token endpoint json
SingpassOIDCService -> SPOP: get token endpoint json
SingpassOIDCService -> SingpassOIDCService: validate response from token endpoint
SingpassOIDCService -> SingpassOIDCService: decrypt jwe
SingpassOIDCService -> SingpassOIDCService: get token endpoint json
SingpassOIDCService -> SingpassOIDCService: get token endpoint json
@enduml

PlantUML version 1.2021.10(Mon Aug 30 21:43:48 SGT 2021)
(GPL source distribution)
Java Runtime: Java(TM) SE Runtime Environment
JVM: Java HotSpot(TM) 64-Bit Server VM
Default Encoding: Cp1252
Language: en
Country: US
--></g></svg>